<svg id="flat" height="512" viewBox="0 0 512 512" width="512" xmlns="http://www.w3.org/2000/svg"><path d="m168 376h-24.894a23.106 23.106 0 0 1 -23.106-23.106v-120.894h48z" fill="#c6ad81"/><path d="m136 352.894v-120.894h-16v120.894a23.106 23.106 0 0 0 23.106 23.106h16a23.106 23.106 0 0 1 -23.106-23.106z" fill="#a08f6d"/><path d="m392 232v120.894a23.106 23.106 0 0 1 -23.106 23.106h-24.894v-144z" fill="#e0c999"/><path d="m344 232v16h32v120.894a23.1 23.1 0 0 1 -.861 6.245 23.111 23.111 0 0 0 16.861-22.245v-120.894z" fill="#f4e0bd"/><path d="m152 152h208v272h-208z" fill="#a08f6d"/><path d="m360 152v256a234.1 234.1 0 0 1 -200.271-199.963l-7.729-56.037z" fill="#c6ad81"/><path d="m96 408h320v80h-320z" fill="#70a165"/><path d="m416 488h-320v-80a70.2 70.2 0 0 0 66.6 48h253.4z" fill="#57704c"/><path d="m328 488h-40l-104-96h40z" fill="#b56b29"/><path d="m184 488h40l104-96h-40z" fill="#603714"/><path d="m120 232h32v32h-32z" fill="#8f5521"/><path d="m296 72h-16v-32.254a7.755 7.755 0 0 0 -7.746-7.746h-32.508a7.755 7.755 0 0 0 -7.746 7.746v32.254h-16v-32.254a23.772 23.772 0 0 1 23.746-23.746h32.508a23.772 23.772 0 0 1 23.746 23.746z" fill="#8f5521"/><path d="m272.254 16h-32.508a23.772 23.772 0 0 0 -23.746 23.746v16a23.772 23.772 0 0 1 23.746-23.746h32.508a23.772 23.772 0 0 1 23.746 23.746v-16a23.772 23.772 0 0 0 -23.746-23.746z" fill="#b56b29"/><path d="m360 232h32v32h-32z" fill="#b56b29"/><path d="m360 152h-208v28l27.378 13.689a135.561 135.561 0 0 0 60.622 14.311 135.561 135.561 0 0 0 60.622-14.311l59.378-29.689z" fill="#a08f6d"/><path d="m384 144-67.378 33.689a135.561 135.561 0 0 1 -60.622 14.311 135.561 135.561 0 0 1 -60.622-14.311l-67.378-33.689 17.587-64.485a31.911 31.911 0 0 1 30.787-23.515h159.252a31.911 31.911 0 0 1 30.787 23.515z" fill="#e0c999"/><path d="m152.374 80h159.252a31.911 31.911 0 0 1 30.787 23.515l14.707 53.925 26.88-13.44-17.587-64.485a31.911 31.911 0 0 0 -30.787-23.515h-159.252a31.911 31.911 0 0 0 -30.787 23.515l-.359 1.315a31.855 31.855 0 0 1 7.146-.83z" fill="#f4e0bd"/><path d="m272 216-16 16-16-16v-64h32z" fill="#b56b29"/><path d="m184 264h144v96h-144z" fill="#c6ad81"/><path d="m328 360h-16l-107.385-7.67a4.97 4.97 0 0 1 -4.615-4.956v-83.374h128z" fill="#e0c999"/><path d="m312 264h16v96h-16z" fill="#f4e0bd"/><path d="m184 264h144v32h-144z" fill="#b56b29"/><path d="m184 264h16v32h-16z" fill="#8f5521"/><path d="m360 232h16v32h-16z" fill="#8f5521"/><g fill="#e0c999"><path d="m184 224h16v16h-16z"/><path d="m184 192h16v16h-16z"/><path d="m312 224h16v16h-16z"/><path d="m312 192h16v16h-16z"/></g></svg>