<?xml version="1.0" ?><svg id="Layer_1_1_" style="enable-background:new 0 0 64 64;" version="1.1" viewBox="0 0 64 64" xml:space="preserve" xmlns="http://www.w3.org/2000/svg" xmlns:xlink="http://www.w3.org/1999/xlink"><g><path d="M16,40V18.325c0-3.777-2.417-7.13-6-8.325l0,0l0,0c-3.583,1.194-6,4.548-6,8.325V40h8H16z" style="fill:#E6E9ED;"/><rect height="2" style="fill:#CCD1D9;" width="12" x="4" y="38"/><path d="M48,40V18.325c0-3.777,2.417-7.13,6-8.325l0,0l0,0c3.583,1.194,6,4.548,6,8.325V40h-8H48z" style="fill:#E6E9ED;"/><rect height="2" style="fill:#CCD1D9;" width="12" x="48" y="38"/><polygon points="51,40 60,40 62,45 62,46 2,46 2,45 4,40 13,40  " style="fill:#656D78;"/><polygon points="53.332,41 52.732,40 51,40 13,40 11.268,40 10.668,41 13.667,46 50.333,46  " style="fill:#5B6570;"/><polygon points="52.732,40 49.133,34 48,34 48,40 52,40  " style="fill:#CCD1D9;"/><polygon points="12,40 16,40 16,34 14.867,34 11.268,40  " style="fill:#CCD1D9;"/><polygon points="16,46 13,41 16,36 27,36 37,36 48,36 51,41 48,46  " style="fill:#48CFAD;"/><polygon points="16,46 48,46 49.371,43.715 40.003,36 37,36 27,36 23.997,36 14.629,43.715  " style="fill:#37BC9B;"/><rect height="12" style="fill:#CCD1D9;" width="32" x="16" y="24"/><rect height="2" style="fill:#AAB2BD;" width="32" x="16" y="26"/><rect height="2" style="fill:#AAB2BD;" width="32" x="16" y="34"/><rect height="10" style="fill:#E6E9ED;" width="16" x="24" y="26"/><rect height="2" style="fill:#CCD1D9;" width="16" x="24" y="34"/><rect height="2" style="fill:#CCD1D9;" width="16" x="24" y="26"/><rect height="7" style="fill:#AAB2BD;" width="2" x="31" y="26"/><polygon points="49,46 32,32 15,46  " style="fill:#5B6570;"/><polygon points="42.708,46 32,37.182 21,46.241  " style="fill:#838F9B;"/><rect height="16" style="fill:#CCD1D9;" width="52" x="6" y="46"/><rect height="8" style="fill:#AAB2BD;" width="8" x="16" y="54"/><rect height="8" style="fill:#AAB2BD;" width="8" x="28" y="54"/><rect height="8" style="fill:#AAB2BD;" width="8" x="40" y="54"/><polygon points="54,54 46,54 42,54 34,54 30,54 22,54 18,54 10,54 10,46 54,46  " style="fill:#AAB2BD;"/><rect height="8" style="fill:#969FAA;" width="8" x="16" y="46"/><rect height="8" style="fill:#969FAA;" width="8" x="28" y="46"/><rect height="8" style="fill:#969FAA;" width="8" x="40" y="46"/><rect height="2" style="fill:#969FAA;" width="44" x="10" y="46"/><rect height="16" style="fill:#E6E9ED;" width="4" x="6" y="46"/><rect height="16" style="fill:#E6E9ED;" width="4" x="54" y="46"/><rect height="16" style="fill:#E6E9ED;" width="4" x="18" y="46"/><rect height="16" style="fill:#E6E9ED;" width="4" x="30" y="46"/><rect height="16" style="fill:#E6E9ED;" width="4" x="42" y="46"/><rect height="2" style="fill:#656D78;" width="2" x="13" y="49"/><rect height="2" style="fill:#656D78;" width="2" x="25" y="49"/><rect height="2" style="fill:#656D78;" width="2" x="37" y="49"/><rect height="2" style="fill:#656D78;" width="2" x="49" y="49"/><rect height="4" style="fill:#48CFAD;" width="32" x="16" y="22"/><rect height="5" style="fill:#48CFAD;" width="6" x="29" y="2"/><path d="M20,22v-6c0-5.523,4.477-10,10-10h4c5.523,0,10,4.477,10,10v6H20z" style="fill:#E6E9ED;"/><rect height="2" style="fill:#CCD1D9;" width="24" x="20" y="20"/><path d="M20.201,14C20.07,14.646,20,15.315,20,16h24c0-0.685-0.07-1.354-0.201-2H20.201z" style="fill:#CCD1D9;"/><path d="M35,4.044C34.669,4.016,34.336,4,34,4h-4c-0.336,0-0.669,0.016-1,0.044V7h6V4.044z" style="fill:#37BC9B;"/><path d="M20.201,14H21h22.799C42.872,9.436,38.838,6,34,6h-4C25.162,6,21.128,9.436,20.201,14z" style="fill:#48CFAD;"/><path d="M27,14c0-5,5-8,5-8s5,3,5,8H27z" style="fill:#5CD6B3;"/><rect height="8" style="fill:#AAB2BD;" width="2" x="23" y="14"/><rect height="8" style="fill:#AAB2BD;" width="2" x="27" y="14"/><rect height="8" style="fill:#AAB2BD;" width="2" x="31" y="14"/><rect height="8" style="fill:#AAB2BD;" width="2" x="35" y="14"/><rect height="8" style="fill:#AAB2BD;" width="2" x="39" y="14"/><rect height="5" style="fill:#48CFAD;" width="2" x="9" y="7"/><path d="M4.026,18h11.948c-0.136-3.642-2.495-6.84-5.974-8C6.521,11.16,4.161,14.358,4.026,18z" style="fill:#48CFAD;"/><polygon points="16,28 10,22 4,28  " style="fill:#48CFAD;"/><rect height="8" style="fill:#AAB2BD;" width="4" x="8" y="32"/><rect height="5" style="fill:#48CFAD;" width="2" x="53" y="7"/><path d="M48.026,18h11.948c-0.136-3.642-2.495-6.84-5.974-8C50.521,11.16,48.161,14.358,48.026,18z" style="fill:#48CFAD;"/><polygon points="48,28 54,22 60,28  " style="fill:#48CFAD;"/><rect height="8" style="fill:#AAB2BD;" transform="matrix(-1 -4.502011e-11 4.502011e-11 -1 108 72)" width="4" x="52" y="32"/><rect height="2" style="fill:#CCD1D9;" width="4" x="6" y="46"/><rect height="2" style="fill:#CCD1D9;" width="4" x="18" y="46"/><rect height="2" style="fill:#CCD1D9;" width="4" x="30" y="46"/><rect height="2" style="fill:#CCD1D9;" width="4" x="42" y="46"/><rect height="2" style="fill:#CCD1D9;" width="4" x="54" y="46"/><rect height="8" style="fill:#969FAA;" width="2" x="10" y="46"/><rect height="8" style="fill:#969FAA;" width="2" x="52" y="46"/><rect height="8" style="fill:#AAB2BD;" width="2" x="10" y="54"/><rect height="2" style="fill:#969FAA;" width="2" x="31" y="26"/><rect height="10" style="fill:#AAB2BD;" width="2" x="16" y="26"/><rect height="10" style="fill:#AAB2BD;" width="2" x="22" y="26"/><rect height="10" style="fill:#AAB2BD;" width="2" x="40" y="26"/><rect height="10" style="fill:#AAB2BD;" width="2" x="46" y="26"/><rect height="2" style="fill:#969FAA;" width="4" x="8" y="38"/><rect height="2" style="fill:#969FAA;" width="4" x="52" y="38"/><rect height="2" style="fill:#CCD1D9;" width="12" x="4" y="28"/><rect height="2" style="fill:#CCD1D9;" width="12" x="48" y="28"/><rect height="2" style="fill:#CCD1D9;" width="12" x="48" y="18"/><rect height="2" style="fill:#CCD1D9;" width="12" x="4" y="18"/><rect height="2" style="fill:#969FAA;" width="2" x="23" y="14"/><rect height="2" style="fill:#969FAA;" width="2" x="27" y="20"/><rect height="2" style="fill:#969FAA;" width="2" x="23" y="20"/><rect height="2" style="fill:#969FAA;" width="2" x="27" y="14"/><rect height="2" style="fill:#969FAA;" width="2" x="31" y="14"/><rect height="2" style="fill:#969FAA;" width="2" x="31" y="20"/><rect height="2" style="fill:#969FAA;" width="2" x="35" y="14"/><rect height="2" style="fill:#969FAA;" width="2" x="35" y="20"/><rect height="2" style="fill:#969FAA;" width="2" x="39" y="14"/><rect height="2" style="fill:#969FAA;" width="2" x="39" y="20"/></g></svg>