<?xml version="1.0" ?><svg id="Layer_1_1_" style="enable-background:new 0 0 64 64;" version="1.1" viewBox="0 0 64 64" xml:space="preserve" xmlns="http://www.w3.org/2000/svg" xmlns:xlink="http://www.w3.org/1999/xlink"><g><path d="M54,20c-2.617-0.654-5.008-2.008-6.915-3.915L46,15H18l-1.085,1.085   C15.008,17.992,12.617,19.346,10,20H9v6h19v-4c0-2.209,1.791-4,4-4s4,1.791,4,4v4h19v-6H54z" style="fill:#E6E9ED;"/><path d="M47.085,16.085L46,15H18l-1.085,1.085c-0.293,0.293-0.601,0.568-0.915,0.834V26h12v-4   c0-2.209,1.791-4,4-4s4,1.791,4,4v4h12v-9.081C47.685,16.652,47.377,16.377,47.085,16.085z" style="fill:#CCD1D9;"/><path d="M4,28v34h56V28H4z M18,58h-4v-6h4V58z M18,40h-4v-6h4V40z M34,58h-4v-6h4V58z M34,40h-4v-6h4V40z    M50,58h-4v-6h4V58z M50,40h-4v-6h4V40z" style="fill:#E6E9ED;"/><rect height="2" style="fill:#CCD1D9;" width="44" x="10" y="30"/><rect height="2" style="fill:#CCD1D9;" width="18" x="10" y="24"/><rect height="2" style="fill:#CCD1D9;" width="18" x="36" y="24"/><rect height="8" style="fill:#CCD1D9;" width="12" x="10" y="42"/><rect height="8" style="fill:#CCD1D9;" width="12" x="26" y="42"/><rect height="8" style="fill:#CCD1D9;" width="12" x="42" y="42"/><rect height="32" style="fill:#CCD1D9;" width="8" x="20" y="30"/><rect height="32" style="fill:#CCD1D9;" width="8" x="36" y="30"/><polygon points="38,30 38,48 38,49 38,62 42,62 42,49 42,48 42,30  " style="fill:#AAB2BD;"/><polygon points="22,30 22,48 22,49 22,62 26,62 26,49 26,48 26,30  " style="fill:#AAB2BD;"/><path d="M32,2L18,14v12h10v-4c0-2.209,1.791-4,4-4s4,1.791,4,4v4h10V14L32,2z" style="fill:#E6E9ED;"/><rect height="2" style="fill:#CCD1D9;" width="28" x="18" y="14"/><path d="M55,26v-6h-1c-0.59-0.147-1.166-0.335-1.73-0.552c-0.177,0.697-0.27,1.42-0.27,2.158V26H55z" style="fill:#CCD1D9;"/><path d="M57,16c-1.874,1.249-3,3.353-3,5.606V26v4v12v2v18h6V44v-2V30v-4v-4.394   C60,19.353,58.874,17.249,57,16z" style="fill:#AAB2BD;"/><path d="M12,21.605c0-0.737-0.093-1.461-0.27-2.158C11.166,19.665,10.59,19.853,10,20H9v6h3V21.605z" style="fill:#CCD1D9;"/><path d="M7,16c-1.874,1.249-3,3.353-3,5.606V26v4v13v1v18h6V44v-1V30v-4v-4.394C10,19.353,8.874,17.249,7,16   z" style="fill:#AAB2BD;"/><rect height="8" style="fill:#969FAA;" width="6" x="4" y="42"/><rect height="8" style="fill:#969FAA;" width="4" x="22" y="42"/><rect height="2" style="fill:#969FAA;" width="4" x="22" y="30"/><rect height="2" style="fill:#969FAA;" width="4" x="38" y="30"/><rect height="8" style="fill:#969FAA;" width="4" x="38" y="42"/><rect height="8" style="fill:#969FAA;" width="6" x="4" y="24"/><rect height="8" style="fill:#969FAA;" width="6" x="54" y="42"/><rect height="8" style="fill:#969FAA;" width="6" x="54" y="24"/><polygon points="32,2 18,14 46,14  " style="fill:#AAB2BD;"/><polygon points="24.147,14 39.846,14 39.853,14 32,7.269  " style="fill:#E6E9ED;"/><rect height="4" style="fill:#AAB2BD;" width="60" x="2" y="44"/><rect height="4" style="fill:#AAB2BD;" width="60" x="2" y="26"/><path d="M22,14v12h6v-4c0-2.209,1.791-4,4-4s4,1.791,4,4v4h6V14H22z" style="fill:#AAB2BD;"/><path d="M57,16c-1.874,1.249-3,3.353-3,5.606V22h6v-0.394C60,19.353,58.874,17.249,57,16z" style="fill:#969FAA;"/><path d="M7,16c-1.874,1.249-3,3.353-3,5.606V22h6v-0.394C10,19.353,8.874,17.249,7,16z" style="fill:#969FAA;"/><rect height="14" style="fill:#CCD1D9;" width="2" x="10" y="48"/><rect height="14" style="fill:#CCD1D9;" width="2" x="52" y="48"/><rect height="14" style="fill:#CCD1D9;" width="2" x="52" y="30"/><rect height="14" style="fill:#CCD1D9;" width="2" x="10" y="30"/><rect height="12" style="fill:#969FAA;" width="2" x="20" y="14"/><rect height="24" style="fill:#969FAA;" transform="matrix(-1.836970e-16 1 -1 -1.836970e-16 47 -17)" width="2" x="31" y="3"/><rect height="12" style="fill:#969FAA;" width="2" x="42" y="14"/></g></svg>