<?xml version="1.0" encoding="iso-8859-1"?>
<!-- Generator: Adobe Illustrator 19.0.0, SVG Export Plug-In . SVG Version: 6.00 Build 0)  -->
<svg version="1.1" id="Capa_1" xmlns="http://www.w3.org/2000/svg" xmlns:xlink="http://www.w3.org/1999/xlink" x="0px" y="0px"
	 viewBox="0 0 512 512" style="enable-background:new 0 0 512 512;" xml:space="preserve">
<g>
	<polygon style="fill:#9D6566;" points="70.621,66.207 0,172.138 0,189.793 0,207.448 0,507.586 141.241,507.586 141.241,207.448 
		141.241,189.793 141.241,172.138 	"/>
	<polygon style="fill:#9D6566;" points="441.379,66.207 370.759,172.138 370.759,189.793 370.759,207.448 370.759,507.586 
		512,507.586 512,207.448 512,189.793 512,172.138 	"/>
	<polygon style="fill:#9D6566;" points="130.966,317.193 130.966,507.586 376.064,507.586 376.064,317.193 253.519,172.138 	"/>
</g>
<g>
	<path style="fill:#F6D295;" d="M335.448,507.586H176.922v-88.461c0-43.776,35.487-79.263,79.263-79.263l0,0
		c43.776,0,79.263,35.487,79.263,79.263V507.586z"/>
	<path style="fill:#F6D295;" d="M256,154.483c-4.873,0-8.828-3.955-8.828-8.828V75.034c0-4.873,3.955-8.828,8.828-8.828
		s8.828,3.955,8.828,8.828v70.621C264.828,150.528,260.873,154.483,256,154.483z"/>
	<path style="fill:#F6D295;" d="M282.483,110.345h-52.966c-4.873,0-8.828-3.955-8.828-8.828s3.955-8.828,8.828-8.828h52.966
		c4.873,0,8.828,3.955,8.828,8.828S287.356,110.345,282.483,110.345z"/>
</g>
<polygon style="fill:#825154;" points="256,128 141.241,269.241 141.241,322.207 256,180.966 370.759,322.207 370.759,269.241 "/>
<g>
	<path style="fill:#F6D295;" d="M70.621,92.69c-4.873,0-8.828-3.955-8.828-8.828V13.241c0-4.873,3.955-8.828,8.828-8.828
		s8.828,3.955,8.828,8.828v70.621C79.448,88.735,75.494,92.69,70.621,92.69z"/>
	<path style="fill:#F6D295;" d="M97.103,48.552H44.138c-4.873,0-8.828-3.955-8.828-8.828s3.955-8.828,8.828-8.828h52.966
		c4.873,0,8.828,3.955,8.828,8.828S101.976,48.552,97.103,48.552z"/>
</g>
<rect y="189.793" style="fill:#AE7A7B;" width="141.241" height="317.793"/>
<path style="fill:#99B0DD;" d="M105.931,401.655H35.31V278.069c0-19.5,15.81-35.31,35.31-35.31l0,0c19.5,0,35.31,15.81,35.31,35.31
	V401.655z"/>
<rect x="35.31" y="401.655" style="fill:#A6B8E5;" width="70.621" height="70.621"/>
<polygon style="fill:#AE7A7B;" points="141.241,172.138 0,172.138 70.621,66.207 "/>
<rect y="172.138" style="fill:#9D6566;" width="141.241" height="35.31"/>
<circle style="fill:#99B0DD;" cx="256" cy="278.069" r="26.483"/>
<g>
	<path style="fill:#CCA46A;" d="M220.69,463.448c-4.873,0-8.828-3.955-8.828-8.828v-17.655c0-4.873,3.955-8.828,8.828-8.828
		c4.873,0,8.828,3.955,8.828,8.828v17.655C229.517,459.493,225.562,463.448,220.69,463.448z"/>
	<path style="fill:#CCA46A;" d="M291.31,463.448c-4.873,0-8.828-3.955-8.828-8.828v-17.655c0-4.873,3.955-8.828,8.828-8.828
		c4.873,0,8.828,3.955,8.828,8.828v17.655C300.138,459.493,296.183,463.448,291.31,463.448z"/>
</g>
<g>
	<path style="fill:#7B93BA;" d="M61.793,244.559v227.716h17.655V244.559c-2.834-1.059-5.764-1.801-8.828-1.801
		S64.627,243.5,61.793,244.559z"/>
	<rect x="35.31" y="313.379" style="fill:#7B93BA;" width="70.621" height="17.655"/>
</g>
<g>
	<path style="fill:#F6D295;" d="M441.379,92.69c-4.873,0-8.828-3.955-8.828-8.828V13.241c0-4.873,3.955-8.828,8.828-8.828
		s8.828,3.955,8.828,8.828v70.621C450.207,88.735,446.252,92.69,441.379,92.69z"/>
	<path style="fill:#F6D295;" d="M467.862,48.552h-52.966c-4.873,0-8.828-3.955-8.828-8.828s3.955-8.828,8.828-8.828h52.966
		c4.873,0,8.828,3.955,8.828,8.828S472.735,48.552,467.862,48.552z"/>
</g>
<rect x="370.759" y="198.621" style="fill:#AE7A7B;" width="141.241" height="308.966"/>
<path style="fill:#99B0DD;" d="M476.69,401.655h-70.621V278.069c0-19.5,15.81-35.31,35.31-35.31l0,0c19.5,0,35.31,15.81,35.31,35.31
	V401.655z"/>
<rect x="406.069" y="401.655" style="fill:#A6B8E5;" width="70.621" height="70.621"/>
<polygon style="fill:#AE7A7B;" points="512,172.138 370.759,172.138 441.379,66.207 "/>
<rect x="370.759" y="172.138" style="fill:#9D6566;" width="141.241" height="35.31"/>
<g>
	<path style="fill:#7B93BA;" d="M432.552,244.559v227.716h17.655V244.559c-2.834-1.059-5.764-1.801-8.828-1.801
		S435.385,243.5,432.552,244.559z"/>
	<rect x="406.069" y="313.379" style="fill:#7B93BA;" width="70.621" height="17.655"/>
</g>
<path style="fill:#CCA46A;" d="M256.185,339.862L256.185,339.862c-3.054,0-6.056,0.212-9.013,0.547v167.177h17.655v-167.23
	C261.985,340.047,259.107,339.862,256.185,339.862z"/>
<g>
</g>
<g>
</g>
<g>
</g>
<g>
</g>
<g>
</g>
<g>
</g>
<g>
</g>
<g>
</g>
<g>
</g>
<g>
</g>
<g>
</g>
<g>
</g>
<g>
</g>
<g>
</g>
<g>
</g>
</svg>
