<?xml version="1.0" ?><svg id="Layer_1_1_" style="enable-background:new 0 0 64 64;" version="1.1" viewBox="0 0 64 64" xml:space="preserve" xmlns="http://www.w3.org/2000/svg" xmlns:xlink="http://www.w3.org/1999/xlink"><g><rect height="21" style="fill:#CCD1D9;" width="42" x="18" y="29"/><rect height="21" style="fill:#AAB2BD;" width="2" x="18" y="29"/><path d="M60,43.082C58.822,42.398,57.458,42,56,42c-4.411,0-8,3.589-8,8h12V43.082z" style="fill:#AAB2BD;"/><path d="M24,42c-2.39,0-4.533,1.059-6,2.726V50h14C32,45.589,28.411,42,24,42z" style="fill:#AAB2BD;"/><rect height="21" style="fill:#AAB2BD;" width="28" x="26" y="29"/><polygon points="28,24 18,29 18,34 28,29 52,29 62,34 62,29 52,24  " style="fill:#656D78;"/><polygon points="54,25 52,24 28,24 26,25 26,30 28,29 52,29 54,30  " style="fill:#5B6570;"/><polygon points="49,50 30,50 30,10 40,4 49,10  " style="fill:#AAB2BD;"/><polygon points="49,46.172 40,37.172 30,47.172 30,50 49,50  " style="fill:#969FAA;"/><rect height="40" style="fill:#E6E9ED;" width="4" x="28" y="10"/><path d="M28,43.082V50h4C32,47.047,30.387,44.468,28,43.082z" style="fill:#CCD1D9;"/><rect height="40" style="fill:#E6E9ED;" width="4" x="48" y="10"/><path d="M52,43.082c-2.387,1.386-4,3.964-4,6.918h4V43.082z" style="fill:#CCD1D9;"/><polygon points="52,49.172 48,45.172 48,50 52,50  " style="fill:#CCD1D9;"/><polygon points="32,45.172 28,49.172 28,50 32,50  " style="fill:#CCD1D9;"/><polygon points="30,50 40,40 50,50  " style="fill:#656D78;"/><polygon points="44.343,50 40,45.657 35.657,50  " style="fill:#838F9B;"/><rect height="12" style="fill:#CCD1D9;" width="44" x="18" y="50"/><path d="M18,50L18,50c0-3.314,2.686-6,6-6h0c3.314,0,6,2.686,6,6v0H18z" style="fill:#656D78;"/><path d="M50,50L50,50c0-3.314,2.686-6,6-6h0c3.314,0,6,2.686,6,6v0H50z" style="fill:#656D78;"/><rect height="12" style="fill:#E6E9ED;" width="20" x="30" y="50"/><path d="M36,62v-4c0-2.209,1.791-4,4-4h0c2.209,0,4,1.791,4,4v4H36z" style="fill:#B27946;"/><path d="M26,62v-6c0-1.105-0.895-2-2-2h0c-1.105,0-2,0.895-2,2v6H26z" style="fill:#B27946;"/><path d="M58,62v-6c0-1.105-0.895-2-2-2h0c-1.105,0-2,0.895-2,2v6H58z" style="fill:#B27946;"/><polygon points="30,10 30,15.203 40,9.32 49,14.615 49,10 40,4  " style="fill:#969FAA;"/><polygon points="28,16.379 32,14.026 32,10 28,10  " style="fill:#CCD1D9;"/><polygon points="48,14.026 52,16.379 52,10 48,10  " style="fill:#CCD1D9;"/><polygon points="23,12 23,17 40,7 57,17 57,12 40,2  " style="fill:#656D78;"/><circle cx="40" cy="26" r="8" style="fill:#CCD1D9;"/><path d="M41,18.069C40.672,18.028,40.339,18,40,18s-0.672,0.028-1,0.069V25h-6.931   C32.028,25.328,32,25.661,32,26s0.028,0.672,0.069,1H39v6.931C39.328,33.972,39.661,34,40,34s0.672-0.028,1-0.069V27h6.931   C47.972,26.672,48,26.339,48,26s-0.028-0.672-0.069-1H41V18.069z" style="fill:#AAB2BD;"/><circle cx="40" cy="26" r="2" style="fill:#838F9B;"/><rect height="36" style="fill:#CCD1D9;" width="16" x="2" y="26"/><rect height="12" style="fill:#969FAA;" width="16" x="2" y="38"/><polygon points="12,26 18,26 18,25 15,18 12,8 8,8 5,18 2,25 2,26 8,26  " style="fill:#838F9B;"/><polygon points="2,26 8,26 8,25 5,18 2,25  " style="fill:#656D78;"/><polygon points="15,18 12,25 12,26 18,26 18,25  " style="fill:#656D78;"/><polygon points="8,8 5,18 15,18 12,8  " style="fill:#656D78;"/><rect height="8" style="fill:#B27946;" width="6" x="7" y="54"/><rect height="8" style="fill:#B27946;" width="6" x="7" y="42"/><rect height="8" style="fill:#B27946;" width="6" x="7" y="30"/><polygon points="20,28 18,29 18,34 20,33  " style="fill:#5B6570;"/><path d="M20,45.537c-1.225,1.099-2,2.688-2,4.463h2V45.537z" style="fill:#5B6570;"/><rect height="12" style="fill:#AAB2BD;" width="2" x="18" y="50"/><rect height="12" style="fill:#AAB2BD;" width="2" x="28" y="50"/><rect height="12" style="fill:#AAB2BD;" width="2" x="50" y="50"/><rect height="2" style="fill:#AAB2BD;" width="16" x="2" y="26"/><rect height="2" style="fill:#AAB2BD;" width="12" x="18" y="50"/><rect height="2" style="fill:#AAB2BD;" width="12" x="50" y="50"/><rect height="2" style="fill:#CCD1D9;" width="20" x="30" y="50"/></g></svg>