<?xml version="1.0" ?><svg id="Layer_1_1_" style="enable-background:new 0 0 64 64;" version="1.1" viewBox="0 0 64 64" xml:space="preserve" xmlns="http://www.w3.org/2000/svg" xmlns:xlink="http://www.w3.org/1999/xlink"><g><polygon points="4,58 60,58 62,62 2,62  " style="fill:#CF9E76;"/><path d="M58,58V48c0-4.418-3.582-8-8-8H14c-4.418,0-8,3.582-8,8v10H58z" style="fill:#CCD1D9;"/><rect height="2" style="fill:#AAB2BD;" width="52" x="6" y="56"/><rect height="6" style="fill:#838F9B;" width="4" x="18" y="52"/><path d="M44,58V48c0-3.273-1.588-6.175-4.026-8H24.026C21.588,41.825,20,44.727,20,48v10H44z" style="fill:#AAB2BD;"/><path d="M42,58V48c0-4.418-3.582-8-8-8h-4c-4.418,0-8,3.582-8,8v10H42z" style="fill:#E6E9ED;"/><rect height="2" style="fill:#CCD1D9;" width="20" x="22" y="56"/><rect height="6" style="fill:#838F9B;" width="4" x="26" y="52"/><rect height="6" style="fill:#838F9B;" width="4" x="10" y="52"/><rect height="6" style="fill:#838F9B;" width="4" x="42" y="52"/><rect height="6" style="fill:#838F9B;" width="4" x="34" y="52"/><path d="M10,41V30c0-4.418,3.582-8,8-8h28c4.418,0,8,3.582,8,8v11H10z" style="fill:#CCD1D9;"/><path d="M54,38.837C52.767,38.297,51.411,38,50,38H14c-1.411,0-2.767,0.297-4,0.837V41h44V38.837z" style="fill:#AAB2BD;"/><path d="M46,22v-8c0-6.627-5.373-12-12-12h-4c-6.627,0-12,5.373-12,12v8H46z" style="fill:#E6E9ED;"/><rect height="2" style="fill:#CCD1D9;" width="28" x="18" y="20"/><rect height="12" style="fill:#AAB2BD;" width="24" x="20" y="28"/><path d="M42,40V28c0-3.314-2.686-6-6-6h-8c-3.314,0-6,2.686-6,6v12H42z" style="fill:#E6E9ED;"/><rect height="2" style="fill:#CCD1D9;" width="20" x="22" y="38"/><rect height="6" style="fill:#838F9B;" width="4" x="26" y="34"/><rect height="6" style="fill:#838F9B;" width="4" x="22" y="16"/><rect height="6" style="fill:#838F9B;" width="4" x="30" y="16"/><rect height="6" style="fill:#838F9B;" width="4" x="38" y="16"/><rect height="6" style="fill:#838F9B;" width="4" x="34" y="34"/><rect height="6" style="fill:#838F9B;" width="4" x="46" y="34"/><rect height="6" style="fill:#838F9B;" width="4" x="14" y="34"/><rect height="6" style="fill:#838F9B;" width="4" x="50" y="52"/><path d="M6.262,46h51.476c-0.889-3.449-4.011-6-7.738-6H14C10.274,40,7.152,42.551,6.262,46z" style="fill:#48CFAD;"/><path d="M43.804,46l-0.129-0.5c-0.584-2.263-1.917-4.172-3.688-5.5H24.013   c-1.771,1.328-3.104,3.237-3.688,5.5L20.196,46H43.804z" style="fill:#37BC9B;"/><path d="M41.738,46c-0.889-3.449-4.011-6-7.738-6h-4c-3.726,0-6.848,2.551-7.738,6H41.738z" style="fill:#5CD6B3;"/><path d="M10.262,28h43.476c-0.889-3.449-4.011-6-7.738-6H18C14.274,22,11.152,24.551,10.262,28z" style="fill:#48CFAD;"/><path d="M41.274,22H22.726C21.059,23.467,20,25.61,20,28h24C44,25.61,42.941,23.467,41.274,22z" style="fill:#37BC9B;"/><path d="M36,22h-8c-3.314,0-6,2.686-6,6h20C42,24.686,39.314,22,36,22z" style="fill:#5CD6B3;"/><path d="M34,2h-4c-5.199,0-9.613,3.313-11.28,7.938L19,10h26h0.303C43.654,5.342,39.223,2,34,2z" style="fill:#FCD770;"/><rect height="6" style="fill:#656D78;" width="2" x="20" y="52"/><rect height="6" style="fill:#656D78;" width="2" x="42" y="52"/><rect height="2" style="fill:#656D78;" width="4" x="26" y="56"/><rect height="2" style="fill:#656D78;" width="4" x="34" y="56"/><rect height="2" style="fill:#656D78;" width="4" x="34" y="38"/><rect height="2" style="fill:#656D78;" width="4" x="38" y="20"/><rect height="2" style="fill:#656D78;" width="4" x="30" y="20"/><rect height="2" style="fill:#656D78;" width="4" x="22" y="20"/><rect height="2" style="fill:#656D78;" width="4" x="26" y="38"/><rect height="2" style="fill:#656D78;" width="4" x="46" y="38"/><rect height="2" style="fill:#656D78;" width="4" x="14" y="38"/><rect height="2" style="fill:#656D78;" width="4" x="42" y="56"/><rect height="2" style="fill:#656D78;" width="4" x="50" y="56"/><rect height="2" style="fill:#656D78;" width="4" x="10" y="56"/><rect height="2" style="fill:#656D78;" width="4" x="18" y="56"/></g></svg>