<?xml version="1.0" ?><svg id="Layer_1_1_" style="enable-background:new 0 0 64 64;" version="1.1" viewBox="0 0 64 64" xml:space="preserve" xmlns="http://www.w3.org/2000/svg" xmlns:xlink="http://www.w3.org/1999/xlink"><g><rect height="26" style="fill:#FCD770;" width="52" x="6" y="30"/><rect height="2" style="fill:#FFC729;" width="52" x="6" y="54"/><polygon points="61,62 60,56 43,56 21,56 4,56 3,62  " style="fill:#DFB28B;"/><polygon points="17.961,62 46.039,62 44.84,56 43,56 21,56 19.16,56  " style="fill:#CF9E76;"/><polygon points="20,62 22,52 42,52 44,62  " style="fill:#DFB28B;"/><rect height="22" style="fill:#E6E9ED;" width="20" x="22" y="30"/><rect height="2" style="fill:#CCD1D9;" width="20" x="22" y="50"/><path d="M6,40h4v-2c0-2.209,1.791-4,4-4h0c2.209,0,4,1.791,4,4v2h4V30H6V40z" style="fill:#FFEAA7;"/><path d="M42,40h4v-2c0-2.209,1.791-4,4-4h0c2.209,0,4,1.791,4,4v2h4V30H42V40z" style="fill:#FFEAA7;"/><rect height="12" style="fill:#969FAA;" width="8" x="46" y="44"/><rect height="12" style="fill:#969FAA;" width="8" x="10" y="44"/><rect height="8" style="fill:#969FAA;" width="8" x="28" y="44"/><path d="M44,20h-2c-1.657,0-3-1.343-3-3v0c0-0.649,0.211-1.281,0.6-1.8l1.8-2.4   c0.378-0.504,0.97-0.8,1.6-0.8l0,0c0.63,0,1.222,0.296,1.6,0.8l1.8,2.4c0.389,0.519,0.6,1.151,0.6,1.8v0C47,18.657,45.657,20,44,20   z" style="fill:#FCD770;"/><rect height="10" style="fill:#E6E9ED;" width="4" x="41" y="20"/><path d="M45,20h-4v1.899C41.323,21.965,41.658,22,42,22h2c0.342,0,0.677-0.035,1-0.101V20z" style="fill:#CCD1D9;"/><path d="M22,20h-2c-1.657,0-3-1.343-3-3v0c0-0.649,0.211-1.281,0.6-1.8l1.8-2.4   c0.378-0.504,0.97-0.8,1.6-0.8h0c0.63,0,1.222,0.296,1.6,0.8l1.8,2.4c0.389,0.519,0.6,1.151,0.6,1.8v0C25,18.657,23.657,20,22,20z" style="fill:#FCD770;"/><rect height="10" style="fill:#E6E9ED;" width="4" x="19" y="20"/><rect height="20" style="fill:#E6E9ED;" width="14" x="25" y="2"/><rect height="4" style="fill:#969FAA;" width="6" x="29" y="6"/><rect height="4" style="fill:#969FAA;" width="6" x="29" y="14"/><rect height="8" style="fill:#AAB2BD;" width="18" x="23" y="22"/><rect height="4" style="fill:#E6E9ED;" width="6" x="8" y="2"/><rect height="20" style="fill:#E6E9ED;" width="6" x="8" y="10"/><rect height="8" style="fill:#CCD1D9;" width="6" x="8" y="4"/><rect height="4" style="fill:#FCD770;" width="10" x="6" y="6"/><rect height="4" style="fill:#E6E9ED;" width="6" x="50" y="2"/><rect height="20" style="fill:#E6E9ED;" width="6" x="50" y="10"/><rect height="8" style="fill:#CCD1D9;" width="6" x="50" y="4"/><rect height="4" style="fill:#FCD770;" width="10" x="48" y="6"/><rect height="2" style="fill:#B27946;" width="62" x="1" y="61"/><path d="M42,30H22v10h6v-2c0-2.209,1.791-4,4-4h0c2.209,0,4,1.791,4,4v2h6V30z" style="fill:#CCD1D9;"/><rect height="2" style="fill:#838F9B;" width="8" x="10" y="54"/><rect height="2" style="fill:#838F9B;" width="8" x="28" y="50"/><rect height="2" style="fill:#838F9B;" width="8" x="46" y="54"/><rect height="2" style="fill:#969FAA;" width="18" x="23" y="28"/><rect height="2" style="fill:#CCD1D9;" width="4" x="19" y="28"/><rect height="2" style="fill:#CCD1D9;" width="4" x="41" y="28"/><rect height="2" style="fill:#CCD1D9;" width="14" x="25" y="20"/><rect height="2" style="fill:#CCD1D9;" width="6" x="8" y="28"/><rect height="2" style="fill:#CCD1D9;" width="6" x="50" y="28"/><path d="M25,12.667v8.308c1.207-0.914,2-2.348,2-3.974c0-1.073-0.354-2.138-1-3L25,12.667z" style="fill:#CCD1D9;"/><path d="M39,12.667l-1.002,1.335C37.354,14.862,37,15.927,37,17c0,1.627,0.793,3.061,2,3.974V12.667z" style="fill:#CCD1D9;"/><path d="M23,20h-4v1.899C19.323,21.965,19.658,22,20,22h2c0.342,0,0.677-0.035,1-0.101V20z" style="fill:#CCD1D9;"/><rect height="8" style="fill:#969FAA;" width="2" x="23" y="22"/><rect height="8" style="fill:#969FAA;" width="2" x="39" y="22"/></g></svg>