<?xml version="1.0" ?><svg id="Layer_1_1_" style="enable-background:new 0 0 64 64;" version="1.1" viewBox="0 0 64 64" xml:space="preserve" xmlns="http://www.w3.org/2000/svg" xmlns:xlink="http://www.w3.org/1999/xlink"><g><polygon points="18,46 3,46 6,38 58,38 61,46 46,46  " style="fill:#AAB2BD;"/><rect height="8" style="fill:#969FAA;" width="32" x="16" y="38"/><rect height="17" style="fill:#CCD1D9;" width="30" x="17" y="20"/><rect height="2" style="fill:#AAB2BD;" width="30" x="17" y="20"/><rect height="18" style="fill:#AAB2BD;" width="20" x="22" y="20"/><polygon points="47,36.172 32,21.172 17,36.172 17,37 47,37  " style="fill:#AAB2BD;"/><polygon points="40,20 49,20 51,14 38,14 26,14 13,14 15,20 24,20  " style="fill:#838F9B;"/><path d="M48.496,14C46.72,7.099,40.455,2,33,2h-2c-7.455,0-13.72,5.099-15.496,12L48.496,14z" style="fill:#5CD6B3;"/><path d="M22,37v-8c0-2.757-2.243-5-5-5v13H22z" style="fill:#AAB2BD;"/><path d="M20,38v-9c0-1.657-1.343-3-3-3h0c-1.657,0-3,1.343-3,3v9H20z" style="fill:#E6E9ED;"/><path d="M17,26c-1.657,0-3,1.343-3,3v1h6v-1C20,27.343,18.657,26,17,26z" style="fill:#838F9B;"/><rect height="16" style="fill:#E6E9ED;" width="56" x="4" y="46"/><rect height="4" style="fill:#4FC1E9;" width="6" x="50" y="50"/><rect height="4" style="fill:#4FC1E9;" width="6" x="8" y="50"/><rect height="2" style="fill:#CCD1D9;" width="56" x="4" y="53"/><rect height="16" style="fill:#CCD1D9;" width="32" x="16" y="46"/><rect height="2" style="fill:#AAB2BD;" width="32" x="16" y="53"/><rect height="24" style="fill:#E6E9ED;" width="28" x="18" y="38"/><rect height="12" style="fill:#E6E9ED;" width="28" x="18" y="38"/><rect height="2" style="fill:#CCD1D9;" width="28" x="18" y="38"/><path d="M47,37V24c-2.757,0-5,2.243-5,5v8H47z" style="fill:#AAB2BD;"/><path d="M44,38v-9c0-1.657,1.343-3,3-3h0c1.657,0,3,1.343,3,3v9H44z" style="fill:#E6E9ED;"/><path d="M26,14h-2.918C22.398,15.178,22,16.542,22,18v2h2h16h2v-2c0-1.458-0.398-2.822-1.082-4H38H26z" style="fill:#656D78;"/><path d="M40.918,14c-1.386-2.387-3.964-4-6.918-4h-4c-2.953,0-5.532,1.613-6.918,4H40.918z" style="fill:#37BC9B;"/><path d="M24,32V18c0-3.314,2.686-6,6-6h4c3.314,0,6,2.686,6,6v14H24z" style="fill:#E6E9ED;"/><polygon points="20,38 20,33.172 15.172,38  " style="fill:#CCD1D9;"/><polygon points="44,33.172 44,38 48.828,38  " style="fill:#CCD1D9;"/><polygon points="46,38 32,24 18,38  " style="fill:#838F9B;"/><polygon points="40.343,38 32,29.657 23.657,38  " style="fill:#AAB2BD;"/><path d="M41.942,11.583C39.882,8.714,36.539,7,33,7h-1V5h1c4.182,0,8.132,2.025,10.567,5.417L41.942,11.583z   " style="fill:#48CFAD;"/><path d="M47,26c-1.657,0-3,1.343-3,3v1h6v-1C50,27.343,48.657,26,47,26z" style="fill:#838F9B;"/><path d="M34,12h-4c-3.314,0-6,2.686-6,6h16C40,14.686,37.314,12,34,12z" style="fill:#CCD1D9;"/><rect height="6" style="fill:#838F9B;" width="4" x="38" y="56"/><rect height="6" style="fill:#838F9B;" width="4" x="30" y="56"/><rect height="6" style="fill:#838F9B;" width="4" x="22" y="56"/><rect height="6" style="fill:#4FC1E9;" width="4" x="24" y="44"/><rect height="6" style="fill:#4FC1E9;" width="4" x="36" y="44"/><rect height="12" style="fill:#CCD1D9;" width="2" x="31" y="38"/><rect height="2" style="fill:#CCD1D9;" width="28" x="18" y="49"/><rect height="4" style="fill:#838F9B;" width="6" x="50" y="58"/><rect height="4" style="fill:#838F9B;" width="6" x="8" y="58"/><rect height="3" style="fill:#838F9B;" width="2" x="9" y="35"/><rect height="3" style="fill:#838F9B;" width="2" x="53" y="35"/><rect height="2" style="fill:#AAB2BD;" width="2" x="31" y="38"/></g></svg>