<?xml version="1.0" ?><svg id="Layer_1_1_" style="enable-background:new 0 0 64 64;" version="1.1" viewBox="0 0 64 64" xml:space="preserve" xmlns="http://www.w3.org/2000/svg" xmlns:xlink="http://www.w3.org/1999/xlink"><g><polygon points="3,62 5,58 53,58 55,58 59,58 61,62  " style="fill:#CCD1D9;"/><path d="M32,2h1l8.066,2.689C41.624,4.875,42,5.396,42,5.984v0c0,0.603-0.396,1.135-0.973,1.308L32,10V2z" style="fill:#FCD770;"/><rect height="6" style="fill:#CCD1D9;" width="52" x="6" y="52"/><rect height="16" style="fill:#E6E9ED;" width="44" x="10" y="36"/><rect height="4" style="fill:#CCD1D9;" width="36" x="14" y="32"/><rect height="4" style="fill:#CCD1D9;" width="20" x="22" y="28"/><rect height="13" style="fill:#DFB28B;" width="2" x="31" y="2"/><polygon points="26,28 29,14 35,14 38,28  " style="fill:#CCD1D9;"/><rect height="4" style="fill:#CCD1D9;" width="44" x="10" y="48"/><rect height="8" style="fill:#656D78;" width="6" x="14" y="40"/><rect height="8" style="fill:#656D78;" width="6" x="24" y="40"/><rect height="8" style="fill:#656D78;" width="6" x="34" y="40"/><rect height="8" style="fill:#656D78;" width="6" x="44" y="40"/><rect height="2" style="fill:#B27946;" width="62" x="1" y="61"/><rect height="2" style="fill:#AAB2BD;" width="52" x="6" y="56"/><rect height="2" style="fill:#AAB2BD;" width="44" x="10" y="50"/><rect height="2" style="fill:#AAB2BD;" width="36" x="14" y="34"/><rect height="2" style="fill:#AAB2BD;" width="20" x="22" y="30"/><polygon points="26.429,26 26,28 38,28 37.571,26  " style="fill:#AAB2BD;"/><rect height="2" style="fill:#CF9E76;" width="2" x="31" y="12"/></g></svg>