<?xml version="1.0" ?><svg id="Layer_1_1_" style="enable-background:new 0 0 64 64;" version="1.1" viewBox="0 0 64 64" xml:space="preserve" xmlns="http://www.w3.org/2000/svg" xmlns:xlink="http://www.w3.org/1999/xlink"><g><rect height="22" style="fill:#ECC19C;" width="52" x="6" y="40"/><rect height="14" style="fill:#DFB28B;" width="52" x="6" y="44"/><rect height="14" style="fill:#CF9E76;" width="2" x="10" y="44"/><rect height="14" style="fill:#CF9E76;" width="2" x="52" y="44"/><rect height="14" style="fill:#CF9E76;" width="8" x="16" y="44"/><rect height="14" style="fill:#CF9E76;" width="8" x="28" y="44"/><rect height="14" style="fill:#CF9E76;" width="8" x="40" y="44"/><rect height="2" style="fill:#CF9E76;" width="44" x="10" y="44"/><rect height="14" style="fill:#F5E0CD;" width="4" x="54" y="44"/><rect height="14" style="fill:#F5E0CD;" width="4" x="6" y="44"/><path d="M10,58v-4.877c0-2.423,1.649-4.535,4-5.123h0h0c2.351,0.588,4,2.7,4,5.123V58H10z" style="fill:#CF9E76;"/><rect height="14" style="fill:#F5E0CD;" width="4" x="18" y="44"/><path d="M22,58v-4.877c0-2.423,1.649-4.535,4-5.123h0h0c2.351,0.588,4,2.7,4,5.123V58H22z" style="fill:#CF9E76;"/><rect height="14" style="fill:#F5E0CD;" width="4" x="30" y="44"/><path d="M34,58v-4.877c0-2.423,1.649-4.535,4-5.123h0h0c2.351,0.588,4,2.7,4,5.123V58H34z" style="fill:#CF9E76;"/><rect height="14" style="fill:#F5E0CD;" width="4" x="42" y="44"/><path d="M46,58v-4.877c0-2.423,1.649-4.535,4-5.123h0h0c2.351,0.588,4,2.7,4,5.123V58H46z" style="fill:#CF9E76;"/><polygon points="8,40 8,28 18,28 46,28 56,28 56,40  " style="fill:#ECC19C;"/><polygon points="56,32 46,32 18,32 8,32 8,28 56,28  " style="fill:#F5E0CD;"/><rect height="4" style="fill:#F0D0B4;" width="32" x="16" y="28"/><rect height="8" style="fill:#DFB28B;" width="32" x="16" y="32"/><rect height="2" style="fill:#DFB28B;" width="48" x="8" y="38"/><rect height="18" style="fill:#F5E0CD;" width="28" x="18" y="22"/><rect height="14" style="fill:#FCD770;" width="20" x="22" y="26"/><rect height="14" style="fill:#F5E0CD;" width="16" x="24" y="26"/><rect height="2" style="fill:#F0D0B4;" width="28" x="18" y="38"/><path d="M44,22L44,22c0-7.166-4.586-13.529-11.384-15.795L32,6l-0.616,0.205C24.586,8.471,20,14.834,20,22v0   H44z" style="fill:#E6E9ED;"/><path d="M38.67,19.236c-0.755-3.105-2.783-5.79-5.563-7.366l0.986-1.74c3.259,1.848,5.636,4.994,6.521,8.634   L38.67,19.236z" style="fill:#CCD1D9;"/><rect height="10" style="fill:#ECC19C;" width="4" x="50" y="18"/><path d="M52,14L52,14c2.209,0,4,1.791,4,4v0h-8v0C48,15.791,49.791,14,52,14z" style="fill:#E6E9ED;"/><rect height="10" style="fill:#ECC19C;" width="4" x="10" y="18"/><path d="M12,14L12,14c-2.209,0-4,1.791-4,4v0h8v0C16,15.791,14.209,14,12,14z" style="fill:#E6E9ED;"/><circle cx="32" cy="4" r="2" style="fill:#E6E9ED;"/><rect height="4" style="fill:#ECC19C;" width="28" x="18" y="22"/><rect height="4" style="fill:#DFB28B;" width="4" x="22" y="22"/><rect height="4" style="fill:#DFB28B;" width="4" x="30" y="22"/><rect height="4" style="fill:#DFB28B;" width="4" x="38" y="22"/><path d="M28,40v-3.528c0-2.741,1.549-5.246,4-6.472l0,0l0,0c2.451,1.226,4,3.731,4,6.472V40H28z" style="fill:#CF9E76;"/><rect height="2" style="fill:#B27946;" width="62" x="1" y="61"/><rect height="2" style="fill:#DFB28B;" width="4" x="10" y="18"/><rect height="2" style="fill:#DFB28B;" width="4" x="10" y="26"/><rect height="2" style="fill:#DFB28B;" width="4" x="50" y="18"/><rect height="2" style="fill:#DFB28B;" width="4" x="50" y="26"/><rect height="2" style="fill:#B27946;" width="8" x="10" y="56"/><rect height="2" style="fill:#B27946;" width="8" x="22" y="56"/><rect height="2" style="fill:#B27946;" width="8" x="34" y="56"/><rect height="2" style="fill:#B27946;" width="8" x="46" y="56"/><rect height="2" style="fill:#DFB28B;" width="52" x="6" y="59"/><path d="M10,53.123V58h2v-8.993C10.774,49.986,10,51.476,10,53.123z" style="fill:#B27946;"/><path d="M22,53.123V58h2v-8.993C22.774,49.986,22,51.476,22,53.123z" style="fill:#B27946;"/><path d="M16,49.007V58h2v-4.877C18,51.476,17.226,49.986,16,49.007z" style="fill:#B27946;"/><path d="M28,49v8.993h2v-4.877C30,51.469,29.226,49.979,28,49z" style="fill:#B27946;"/><path d="M34,53.123V58h2v-8.993C34.774,49.986,34,51.476,34,53.123z" style="fill:#B27946;"/><path d="M40,49v8.993h2v-4.877C42,51.469,41.226,49.979,40,49z" style="fill:#B27946;"/><path d="M46,53.123V58h2v-8.993C46.774,49.986,46,51.476,46,53.123z" style="fill:#B27946;"/><path d="M52,49v8.993h2v-4.877C54,51.469,53.226,49.979,52,49z" style="fill:#B27946;"/><rect height="2" style="fill:#B27946;" width="8" x="28" y="38"/><path d="M20.133,20C20.054,20.659,20,21.324,20,22h24c0-0.676-0.054-1.341-0.133-2H20.133z" style="fill:#CCD1D9;"/><rect height="2" style="fill:#FFC729;" width="2" x="40" y="38"/><rect height="2" style="fill:#FFC729;" width="2" x="22" y="38"/></g></svg>