<?xml version="1.0" ?><svg id="Layer_1_1_" style="enable-background:new 0 0 64 64;" version="1.1" viewBox="0 0 64 64" xml:space="preserve" xmlns="http://www.w3.org/2000/svg" xmlns:xlink="http://www.w3.org/1999/xlink"><g><polygon points="4,62 4,28 16,28 16,42 48,42 48,28 60,28 60,62  " style="fill:#ECC19C;"/><polygon points="48,40 48,42 16,42 16,40 13.614,40 9.114,52 12,52 12,62 52,62 52,52 54.886,52 50.386,40     " style="fill:#DFB28B;"/><polygon points="52,50 12,50 15,42 49,42  " style="fill:#FCD770;"/><rect height="12" style="fill:#F5E0CD;" width="36" x="14" y="50"/><rect height="2" style="fill:#F0D0B4;" width="36" x="14" y="59"/><rect height="8" style="fill:#DFB28B;" width="4" x="18" y="54"/><rect height="8" style="fill:#DFB28B;" width="4" x="26" y="54"/><rect height="8" style="fill:#DFB28B;" width="4" x="34" y="54"/><rect height="8" style="fill:#DFB28B;" width="4" x="42" y="54"/><path d="M62,26.519L62,26.519C62,27.337,61.337,28,60.519,28H47.481C46.663,28,46,27.337,46,26.519v0   c0-0.336,0.114-0.662,0.324-0.925L54,16l7.676,9.594C61.886,25.857,62,26.183,62,26.519z" style="fill:#5CD6B3;"/><path d="M18,26.519L18,26.519C18,27.337,17.337,28,16.519,28H3.481C2.663,28,2,27.337,2,26.519v0   c0-0.336,0.114-0.662,0.324-0.925L10,16l7.676,9.594C17.886,25.857,18,26.183,18,26.519z" style="fill:#5CD6B3;"/><path d="M27,9.532L27,9.532C27,10.343,27.657,11,28.468,11h7.063C36.343,11,37,10.343,37,9.532v0   c0-0.344-0.12-0.676-0.34-0.94L32,3l-4.66,5.592C27.12,8.855,27,9.188,27,9.532z" style="fill:#5CD6B3;"/><rect height="7" style="fill:#E6E9ED;" width="6" x="29" y="11"/><polygon points="35,18 29,18 23,28 23,42 41,42 41,28  " style="fill:#F0D0B4;"/><rect height="2" style="fill:#ECC19C;" width="18" x="23" y="40"/><polygon points="29,18 23,28 41,28 35,18  " style="fill:#5CD6B3;"/><path d="M27,42v-8c0-1.105,0.895-2,2-2h6c1.105,0,2,0.895,2,2v8H27z" style="fill:#CF9E76;"/><rect height="8" style="fill:#CF9E76;" width="4" x="8" y="32"/><rect height="8" style="fill:#CF9E76;" width="4" x="52" y="32"/><rect height="2" style="fill:#B27946;" width="62" x="1" y="61"/><rect height="2" style="fill:#ECC19C;" width="18" x="23" y="28"/><rect height="2" style="fill:#DFB28B;" width="12" x="4" y="28"/><rect height="2" style="fill:#CCD1D9;" width="6" x="29" y="11"/><rect height="2" style="fill:#DFB28B;" width="12" x="48" y="28"/><rect height="2" style="fill:#B27946;" width="10" x="27" y="40"/><rect height="2" style="fill:#F0D0B4;" width="36" x="14" y="50"/><rect height="2" style="fill:#CF9E76;" width="4" x="18" y="59"/><rect height="2" style="fill:#CF9E76;" width="4" x="26" y="59"/><rect height="2" style="fill:#CF9E76;" width="4" x="34" y="59"/><rect height="2" style="fill:#CF9E76;" width="4" x="42" y="59"/></g></svg>