<?xml version="1.0" ?><svg id="Layer_1_1_" style="enable-background:new 0 0 64 64;" version="1.1" viewBox="0 0 64 64" xml:space="preserve" xmlns="http://www.w3.org/2000/svg" xmlns:xlink="http://www.w3.org/1999/xlink"><g><polygon points="6,48 6,32 9,28 15,28 49,28 55,28 58,32 58,48  " style="fill:#CCD1D9;"/><rect height="2" style="fill:#AAB2BD;" width="52" x="6" y="32"/><polygon points="19.446,30 8,36.867 8,48 56,48 56,36.867 44.554,30  " style="fill:#AAB2BD;"/><polygon points="44,32 58,32 55,28 49,28 15,28 9,28 6,32 20,32  " style="fill:#838F9B;"/><rect height="4" style="fill:#656D78;" width="28" x="18" y="28"/><polygon points="4,61 4,48 20,48 44,48 60,48 60,61  " style="fill:#DFB28B;"/><path d="M43,60H21l-6-8H4v9h56v-1H48l3-4h9v-4H49L43,60z M4,60v-4h9l3,4H4z" style="fill:#CF9E76;"/><polygon points="50.189,61 48.534,57.276 45.441,48 18.559,48 15.466,57.276 13.811,61  " style="fill:#CF9E76;"/><polygon points="20,50 44,50 46.667,58 48,62 16,62 17.333,58  " style="fill:#F0D0B4;"/><polygon points="17.333,58 16,62 48,62 46.667,58 46,56 43,60 21,60 18,56  " style="fill:#ECC19C;"/><polygon points="44,62 50,54 62,54 62,62 2,62 2,54 14,54 20,62  " style="fill:#F0D0B4;"/><rect height="8" style="fill:#CF9E76;" width="6" x="24" y="54"/><polygon points="10,28 10,22 22,16 42,16 54,22 54,28  " style="fill:#E6E9ED;"/><rect height="4" style="fill:#CCD1D9;" width="28" x="18" y="24"/><rect height="2" style="fill:#CCD1D9;" width="44" x="10" y="22"/><polygon points="42,22 54,22 42,16 22,16 10,22 22,22  " style="fill:#838F9B;"/><polygon points="42,16 22,16 20,17 20,22 22,22 42,22 44,22 44,17  " style="fill:#656D78;"/><polygon points="10,48 10,38 20,32 44,32 54,38 54,48  " style="fill:#E6E9ED;"/><rect height="9" style="fill:#CCD1D9;" width="28" x="18" y="38"/><polygon points="14,48 14,42 20,42 44,42 50,42 50,48  " style="fill:#CCD1D9;"/><rect height="6" style="fill:#AAB2BD;" width="28" x="18" y="42"/><polygon points="44,38 54,38 44,32 20,32 10,38 20,38  " style="fill:#838F9B;"/><polygon points="44,32 20,32 18,33.2 18,38 20,38 44,38 46,38 46,33.2  " style="fill:#656D78;"/><rect height="8" style="fill:#CF9E76;" width="6" x="34" y="54"/><polygon points="22,26 22,12 32,3 42,12 42,26  " style="fill:#E6E9ED;"/><polygon points="22,12 42,12 32,3  " style="fill:#838F9B;"/><circle cx="32" cy="10" r="2" style="fill:#E6E9ED;"/><rect height="24" style="fill:#E6E9ED;" width="24" x="20" y="26"/><rect height="2" style="fill:#CCD1D9;" width="24" x="20" y="48"/><rect height="6" style="fill:#838F9B;" width="4" x="26" y="16"/><rect height="6" style="fill:#838F9B;" width="4" x="34" y="16"/><path d="M28,50v-6c0-2.209,1.791-4,4-4h0c2.209,0,4,1.791,4,4v6H28z" style="fill:#CF9E76;"/><rect height="6" style="fill:#838F9B;" width="16" x="24" y="30"/><rect height="6" style="fill:#AAB2BD;" width="2" x="27" y="30"/><rect height="6" style="fill:#AAB2BD;" width="2" x="31" y="30"/><rect height="6" style="fill:#AAB2BD;" width="2" x="35" y="30"/><rect height="2" style="fill:#CCD1D9;" width="20" x="22" y="24"/><rect height="2" style="fill:#CCD1D9;" width="20" x="22" y="12"/><rect height="4" style="fill:#CCD1D9;" width="2" x="20" y="22"/><rect height="4" style="fill:#CCD1D9;" width="2" x="42" y="22"/><rect height="2" style="fill:#CCD1D9;" width="10" x="10" y="38"/><rect height="2" style="fill:#CCD1D9;" width="10" x="44" y="38"/><rect height="2" style="fill:#B27946;" width="6" x="24" y="60"/><rect height="2" style="fill:#B27946;" width="6" x="34" y="60"/><rect height="2" style="fill:#B27946;" width="8" x="28" y="48"/></g></svg>