<?xml version="1.0" ?><svg id="Layer_1_1_" style="enable-background:new 0 0 64 64;" version="1.1" viewBox="0 0 64 64" xml:space="preserve" xmlns="http://www.w3.org/2000/svg" xmlns:xlink="http://www.w3.org/1999/xlink"><g><rect height="38" style="fill:#DFB28B;" width="60" x="2" y="24"/><path d="M46.109,26.336L45,25.597l-1.109,0.739c-1.1,0.733-1.987,1.697-2.643,2.795   C39.424,27.207,36.853,26,34,26h-4c-2.853,0-5.424,1.207-7.248,3.131c-0.656-1.098-1.543-2.062-2.643-2.795L19,25.597l-1.109,0.739   C15.454,27.96,14,30.677,14,33.605V38h6h4h16h4h6v-4.395C50,30.677,48.546,27.96,46.109,26.336z" style="fill:#CF9E76;"/><rect height="26" style="fill:#DFB28B;" width="36" x="14" y="36"/><rect height="24" style="fill:#CF9E76;" width="36" x="14" y="38"/><rect height="12" style="fill:#F0D0B4;" width="60" x="2" y="38"/><rect height="2" style="fill:#ECC19C;" width="60" x="2" y="48"/><rect height="12" style="fill:#ECC19C;" width="36" x="14" y="38"/><rect height="2" style="fill:#CF9E76;" width="60" x="2" y="36"/><rect height="26" style="fill:#DFB28B;" width="32" x="16" y="36"/><rect height="8" style="fill:#CF9E76;" width="32" x="16" y="46"/><path d="M22,62V43c0,0,3-3,10-3s10,3,10,3v19H22z" style="fill:#F0D0B4;"/><rect height="8" style="fill:#ECC19C;" width="20" x="22" y="46"/><rect height="6" style="fill:#838F9B;" width="4" x="26" y="56"/><rect height="8" style="fill:#838F9B;" width="6" x="6" y="54"/><rect height="8" style="fill:#838F9B;" width="6" x="6" y="42"/><rect height="8" style="fill:#838F9B;" width="6" x="6" y="30"/><rect height="6" style="fill:#838F9B;" width="4" x="34" y="56"/><polygon points="16,48 37,48 39,48 48,48 48,52 16,52  " style="fill:#F5E0CD;"/><path d="M22,36L22,36c0-4.418,3.582-8,8-8h4c4.418,0,8,3.582,8,8v0H22z" style="fill:#E6E9ED;"/><path d="M42,36v-2.394c0-2.253,1.126-4.356,3-5.606l0,0l0,0c1.874,1.249,3,3.353,3,5.606V36H42z" style="fill:#F0D0B4;"/><path d="M42.197,32h5.606c-0.397-1.619-1.385-3.054-2.803-4C43.581,28.946,42.594,30.381,42.197,32z" style="fill:#E6E9ED;"/><path d="M16,36v-2.394c0-2.253,1.126-4.356,3-5.606l0,0l0,0c1.874,1.249,3,3.353,3,5.606V36H16z" style="fill:#F0D0B4;"/><path d="M16.197,32h5.606c-0.397-1.619-1.385-3.054-2.803-4C17.581,28.946,16.594,30.381,16.197,32z" style="fill:#E6E9ED;"/><rect height="8" style="fill:#838F9B;" width="6" x="52" y="54"/><rect height="2" style="fill:#656D78;" width="6" x="6" y="60"/><rect height="2" style="fill:#656D78;" width="6" x="52" y="60"/><rect height="8" style="fill:#838F9B;" width="6" x="52" y="42"/><rect height="8" style="fill:#838F9B;" width="6" x="52" y="30"/><path d="M18,12L18,12c1.163-5.815,6.268-10,12.198-10h3.604C39.732,2,44.837,6.185,46,12l0,0H18z" style="fill:#E6E9ED;"/><rect height="12" style="fill:#DFB28B;" width="32" x="16" y="12"/><rect height="6" style="fill:#F0D0B4;" width="32" x="16" y="12"/><polygon points="22.333,18 25.667,18 32,13.25 38.333,18 41.667,18 48,13.25 48,12 46.334,12 40,16.75    33.667,12 30.333,12 24,16.75 17.666,12 16,12 16,13.25  " style="fill:#CF9E76;"/><path d="M52,24v-6.394c0-2.253,1.126-4.356,3-5.606l0,0l0,0c1.874,1.249,3,3.353,3,5.606V24H52z" style="fill:#F5E0CD;"/><path d="M55,12c-1.874,1.249-3,3.353-3,5.606V18h6v-0.394C58,15.353,56.874,13.249,55,12z" style="fill:#E6E9ED;"/><path d="M6,24v-6.394C6,15.353,7.126,13.249,9,12l0,0l0,0c1.874,1.249,3,3.353,3,5.606V24H6z" style="fill:#F5E0CD;"/><path d="M9,12c-1.874,1.249-3,3.353-3,5.606V18h6v-0.394C12,15.353,10.874,13.249,9,12z" style="fill:#E6E9ED;"/><rect height="2" style="fill:#CF9E76;" width="32" x="16" y="22"/><rect height="2" style="fill:#F0D0B4;" width="6" x="6" y="22"/><rect height="2" style="fill:#F0D0B4;" width="6" x="52" y="22"/><rect height="2" style="fill:#656D78;" width="6" x="6" y="36"/><rect height="2" style="fill:#656D78;" width="6" x="52" y="36"/><rect height="2" style="fill:#656D78;" width="6" x="6" y="48"/><rect height="2" style="fill:#656D78;" width="6" x="52" y="48"/><rect height="2" style="fill:#ECC19C;" width="6" x="16" y="34"/><rect height="2" style="fill:#ECC19C;" width="6" x="42" y="34"/><path d="M22.262,34C22.097,34.64,22,35.308,22,36h20c0-0.692-0.097-1.36-0.262-2H22.262z" style="fill:#CCD1D9;"/><path d="M18.581,10c-0.245,0.641-0.443,1.308-0.581,2h28c-0.138-0.692-0.336-1.359-0.581-2H18.581z" style="fill:#CCD1D9;"/></g></svg>