<?xml version="1.0" ?><svg id="Layer_1_1_" style="enable-background:new 0 0 64 64;" version="1.1" viewBox="0 0 64 64" xml:space="preserve" xmlns="http://www.w3.org/2000/svg" xmlns:xlink="http://www.w3.org/1999/xlink"><g><rect height="4" style="fill:#838F9B;" width="60" x="2" y="58"/><polygon points="18,58 18,26 39,26 41,26 46,26 46,58  " style="fill:#DFB28B;"/><path d="M44,26v-1.834c0-7.02-5.075-13.011-12-14.166l0,0l0,0c-6.925,1.154-12,7.145-12,14.166V26H44z" style="fill:#E6E9ED;"/><circle cx="32" cy="8" r="2" style="fill:#AAB2BD;"/><rect height="6" style="fill:#AAB2BD;" width="2" x="31" y="1"/><path d="M22,58V39.413c0-2.547,1.841-4.72,4.353-5.139h0c1.071-0.179,2.06-0.687,2.827-1.455L32,30   l2.819,2.819c0.768,0.768,1.756,1.276,2.827,1.455h0C40.159,34.693,42,36.867,42,39.413V58H22z" style="fill:#E6E9ED;"/><path d="M38,58V39.413c0-0.594-0.426-1.096-1.012-1.193c-1.9-0.317-3.625-1.203-4.988-2.562   c-1.363,1.359-3.088,2.245-4.987,2.562C26.426,38.317,26,38.819,26,39.413V58H38z" style="fill:#CF9E76;"/><polygon points="12,58 11,42 5,42 4,58  " style="fill:#DFB28B;"/><polygon points="14,36 2,36 3,42 13,42  " style="fill:#E6E9ED;"/><polygon points="14,20 2,20 4,26 12,26  " style="fill:#E6E9ED;"/><rect height="10" style="fill:#DFB28B;" width="6" x="5" y="26"/><path d="M4,20v-3.528C4,13.731,5.549,11.226,8,10l0,0l0,0c2.451,1.226,4,3.731,4,6.472V20H4z" style="fill:#DFB28B;"/><path d="M4.033,16h7.934c-0.168-2.552-1.658-4.846-3.967-6C5.691,11.154,4.201,13.448,4.033,16z" style="fill:#E6E9ED;"/><polygon points="60,58 59,42 53,42 52,58  " style="fill:#DFB28B;"/><polygon points="62,36 50,36 51,42 61,42  " style="fill:#E6E9ED;"/><polygon points="62,20 50,20 52,26 60,26  " style="fill:#E6E9ED;"/><rect height="10" style="fill:#DFB28B;" width="6" x="53" y="26"/><path d="M52,20v-3.528c0-2.741,1.549-5.246,4-6.472l0,0l0,0c2.451,1.226,4,3.731,4,6.472V20H52z" style="fill:#DFB28B;"/><path d="M52.033,16h7.934c-0.168-2.552-1.658-4.846-3.967-6C53.691,11.154,52.201,13.448,52.033,16z" style="fill:#E6E9ED;"/><path d="M20.627,20h22.745C41.822,14.889,37.5,10.917,32,10C26.5,10.917,22.178,14.889,20.627,20z" style="fill:#AAB2BD;"/><path d="M27,20c0-6,5-10,5-10s5,4,5,10H27z" style="fill:#CCD1D9;"/><rect height="2" style="fill:#CF9E76;" width="6" x="5" y="26"/><polygon points="4.125,56 4,58 12,58 11.875,56  " style="fill:#CF9E76;"/><polygon points="11.125,44 11,42 5,42 4.875,44  " style="fill:#CF9E76;"/><rect height="2" style="fill:#CF9E76;" width="8" x="4" y="16"/><rect height="2" style="fill:#CF9E76;" width="8" x="52" y="16"/><rect height="2" style="fill:#CF9E76;" width="6" x="53" y="26"/><rect height="2" style="fill:#CF9E76;" width="6" x="53" y="34"/><polygon points="52.125,56 52,58 60,58 59.875,56  " style="fill:#CF9E76;"/><polygon points="59.125,44 59,42 53,42 52.875,44  " style="fill:#CF9E76;"/><path d="M43.993,24H20.007C20.007,24.056,20,24.11,20,24.166V26h24v-1.834C44,24.11,43.993,24.056,43.993,24   z" style="fill:#CCD1D9;"/></g></svg>