<?xml version="1.0" ?><svg id="Layer_1_1_" style="enable-background:new 0 0 64 64;" version="1.1" viewBox="0 0 64 64" xml:space="preserve" xmlns="http://www.w3.org/2000/svg" xmlns:xlink="http://www.w3.org/1999/xlink"><g><polygon points="9,62 11,58 53,58 55,62  " style="fill:#CCD1D9;"/><path d="M29,7V3c0-0.552,0.448-1,1-1h4c0.552,0,1,0.448,1,1v4H29z" style="fill:#E6E9ED;"/><rect height="3" style="fill:#CCD1D9;" width="6" x="29" y="4"/><path d="M18,22v-4c0-6.627,5.373-12,12-12h4c6.627,0,12,5.373,12,12v4H18z" style="fill:#E6E9ED;"/><rect height="4" style="fill:#E6E9ED;" width="34" x="15" y="22"/><rect height="12" style="fill:#FF826E;" width="28" x="18" y="26"/><rect height="2" style="fill:#FC6E51;" width="28" x="18" y="36"/><rect height="2" style="fill:#FC6E51;" width="28" x="18" y="26"/><path d="M55,44H9h0c2.885,0,5.348-2.086,5.822-4.932L15,38h34l0.178,1.068C49.652,41.914,52.115,44,55,44   L55,44z" style="fill:#E6E9ED;"/><rect height="14" style="fill:#FF826E;" width="38" x="13" y="44"/><rect height="2" style="fill:#FC6E51;" width="38" x="13" y="56"/><rect height="2" style="fill:#FC6E51;" width="38" x="13" y="44"/><rect height="2" style="fill:#B27946;" width="52" x="6" y="61"/><rect height="2" style="fill:#B27946;" width="2" x="2" y="61"/><rect height="2" style="fill:#B27946;" width="2" x="60" y="61"/><rect height="10" style="fill:#ECC19C;" width="6" x="19" y="48"/><rect height="10" style="fill:#ECC19C;" width="6" x="29" y="48"/><rect height="8" style="fill:#ECC19C;" width="4" x="30" y="30"/><rect height="8" style="fill:#ECC19C;" width="4" x="38" y="30"/><rect height="8" style="fill:#ECC19C;" width="4" x="22" y="30"/><rect height="10" style="fill:#ECC19C;" width="6" x="39" y="48"/><rect height="4" style="fill:#AAB2BD;" width="6" x="23" y="22"/><rect height="4" style="fill:#AAB2BD;" width="6" x="35" y="22"/><path d="M18.18,16h27.64C44.866,10.327,39.944,6,34,6h-4C24.056,6,19.134,10.327,18.18,16z" style="fill:#AAB2BD;"/><path d="M26,16c0-7,6-10,6-10s6,3,6,10H26z" style="fill:#E6E9ED;"/><rect height="2" style="fill:#CCD1D9;" width="28" x="18" y="20"/><path d="M18.18,16C18.07,16.652,18,17.317,18,18h28c0-0.683-0.07-1.348-0.18-2H18.18z" style="fill:#CCD1D9;"/><rect height="2" style="fill:#DFB28B;" width="4" x="22" y="36"/><rect height="2" style="fill:#DFB28B;" width="6" x="19" y="56"/><rect height="2" style="fill:#DFB28B;" width="6" x="29" y="56"/><rect height="2" style="fill:#DFB28B;" width="6" x="39" y="56"/><rect height="2" style="fill:#DFB28B;" width="4" x="30" y="36"/><rect height="2" style="fill:#DFB28B;" width="4" x="38" y="36"/></g></svg>