<?xml version="1.0" ?><svg id="Layer_1_1_" style="enable-background:new 0 0 64 64;" version="1.1" viewBox="0 0 64 64" xml:space="preserve" xmlns="http://www.w3.org/2000/svg" xmlns:xlink="http://www.w3.org/1999/xlink"><g><polygon points="53,30 57,30 57,26 53,26 11,26 7,26 7,30 11,30  " style="fill:#FC6E51;"/><rect height="4" style="fill:#E9573F;" width="12" x="9" y="26"/><rect height="4" style="fill:#E9573F;" width="12" x="43" y="26"/><rect height="42" style="fill:#FC6E51;" width="8" x="45" y="16"/><rect height="42" style="fill:#FC6E51;" width="8" x="11" y="16"/><rect height="4" style="fill:#656D78;" width="16" x="5" y="58"/><polygon points="16,58 16,46 19,46 19,45.027 11,32.227 11,58  " style="fill:#E9573F;"/><polygon points="16,44 6,44 11,36  " style="fill:#656D78;"/><rect height="14" style="fill:#FF826E;" width="7" x="7" y="44"/><path d="M39,12h18l2-8V2h-1l0,0c-1.226,2.451-3.731,4-6.472,4H12.472C9.731,6,7.226,4.451,6,2l0,0H5v2l2,8   h18H39z" style="fill:#656D78;"/><path d="M55,12v2c0,1.105-0.895,2-2,2H39H25H11c-1.105,0-2-0.895-2-2v-2H55z" style="fill:#FF826E;"/><rect height="2" style="fill:#FC6E51;" width="46" x="9" y="12"/><rect height="4" style="fill:#FC6E51;" width="18" x="23" y="12"/><rect height="4" style="fill:#656D78;" width="16" x="43" y="58"/><polygon points="45,46 48,46 48,58 53,58 53,32.227 45,45.027  " style="fill:#E9573F;"/><polygon points="48,44 58,44 53,36  " style="fill:#656D78;"/><rect height="14" style="fill:#FF826E;" width="7" x="50" y="44"/><rect height="16" style="fill:#E9573F;" width="14" x="25" y="10"/><rect height="2" style="fill:#CCD1D9;" width="8" x="28" y="13"/><rect height="2" style="fill:#CCD1D9;" width="8" x="28" y="17"/><rect height="2" style="fill:#CCD1D9;" width="8" x="28" y="21"/><rect height="2" style="fill:#B27946;" width="62" x="1" y="61"/><rect height="2" style="fill:#FC6E51;" width="7" x="7" y="56"/><rect height="2" style="fill:#E9573F;" width="5" x="14" y="56"/><rect height="2" style="fill:#E9573F;" width="5" x="45" y="56"/><rect height="2" style="fill:#FC6E51;" width="7" x="50" y="56"/></g></svg>