<?xml version="1.0" ?><svg id="Layer_1_1_" style="enable-background:new 0 0 64 64;" version="1.1" viewBox="0 0 64 64" xml:space="preserve" xmlns="http://www.w3.org/2000/svg" xmlns:xlink="http://www.w3.org/1999/xlink"><g><polygon points="6,42 8,28 56,28 58,42  " style="fill:#ECC19C;"/><rect height="14" style="fill:#F0D0B4;" width="20" x="22" y="28"/><polygon points="6.286,40 6,42 58,42 57.714,40  " style="fill:#DFB28B;"/><rect height="2" style="fill:#ECC19C;" width="20" x="22" y="40"/><polygon points="10,28 12,14 52,14 54,28  " style="fill:#ECC19C;"/><path d="M32,2h1l8.066,2.689C41.624,4.875,42,5.396,42,5.984v0c0,0.603-0.396,1.135-0.973,1.308L32,10V2z" style="fill:#FCD770;"/><rect height="12" style="fill:#ECC19C;" width="2" x="31" y="2"/><polygon points="4,42 2,46 2,62 62,62 62,46 60,42  " style="fill:#ECC19C;"/><rect height="2" style="fill:#DFB28B;" width="60" x="2" y="46"/><rect height="16" style="fill:#F0D0B4;" width="20" x="22" y="46"/><polygon points="4,42 2,46 62,46 60,42  " style="fill:#F0D0B4;"/><rect height="4" style="fill:#F5E0CD;" width="20" x="22" y="42"/><path d="M48,62v-8c0-2.209,1.791-4,4-4h0c2.209,0,4,1.791,4,4v8H48z" style="fill:#969FAA;"/><path d="M28,62v-8c0-2.209,1.791-4,4-4h0c2.209,0,4,1.791,4,4v8H28z" style="fill:#969FAA;"/><path d="M8,62v-8c0-2.209,1.791-4,4-4h0c2.209,0,4,1.791,4,4v8H8z" style="fill:#969FAA;"/><path d="M28,42v-6c0-2.209,1.791-4,4-4h0c2.209,0,4,1.791,4,4v6H28z" style="fill:#969FAA;"/><rect height="6" style="fill:#969FAA;" width="6" x="46" y="32"/><rect height="6" style="fill:#969FAA;" width="6" x="12" y="32"/><rect height="6" style="fill:#969FAA;" width="8" x="16" y="18"/><rect height="6" style="fill:#969FAA;" width="8" x="28" y="18"/><rect height="6" style="fill:#969FAA;" width="8" x="40" y="18"/><polygon points="10.286,26 10,28 54,28 53.714,26  " style="fill:#DFB28B;"/><rect height="2" style="fill:#ECC19C;" width="20" x="22" y="46"/><rect height="2" style="fill:#838F9B;" width="8" x="28" y="40"/><rect height="2" style="fill:#DFB28B;" width="2" x="31" y="12"/></g></svg>