<?xml version="1.0" ?><svg id="Layer_1_1_" style="enable-background:new 0 0 64 64;" version="1.1" viewBox="0 0 64 64" xml:space="preserve" xmlns="http://www.w3.org/2000/svg" xmlns:xlink="http://www.w3.org/1999/xlink"><g><polygon points="38,62 5,62 5,51 5,47 5,36 59,36 59,39 59,43 59,62  " style="fill:#E6E9ED;"/><polygon points="34.456,38 19.759,50.075 27.019,54.512 37.536,46 59,46 59,43 59,39 59,38  " style="fill:#CCD1D9;"/><polygon points="37.125,56 19.125,45 5,45 5,47 5,51 5,53 16.875,53 31.602,62 38,62 59,62 59,56  " style="fill:#CCD1D9;"/><polygon points="62,62 35.437,62 17.437,51 2,51 2,47 18.562,47 36.562,58 62,58  " style="fill:#969FAA;"/><polygon points="35.172,40 23.201,49.835 26.857,52.069 36.828,44 62,44 62,40  " style="fill:#969FAA;"/><polygon points="24.837,48.491 23.201,49.835 26.857,52.069 28.507,50.734  " style="fill:#838F9B;"/><path d="M20,22v-2c0-2.209,1.791-4,4-4h16c2.209,0,4,1.791,4,4v2H20z" style="fill:#FCD770;"/><path d="M24,16L24,16c0-2.209,1.791-4,4-4h8c2.209,0,4,1.791,4,4v0H24z" style="fill:#FCD770;"/><rect height="8" style="fill:#FFEAA7;" width="48" x="8" y="28"/><rect height="2" style="fill:#FCD770;" width="48" x="8" y="34"/><path d="M24,16h16c0-0.732-0.211-1.41-0.555-2H24.555C24.211,14.59,24,15.268,24,16z" style="fill:#FFC729;"/><path d="M28,12l1.608-8.039C29.836,2.821,30.837,2,32,2h0c1.163,0,2.164,0.821,2.392,1.961L36,12H28z" style="fill:#FCD770;"/><polygon points="51,28 5,28 8,22 56,22 59,28 53,28  " style="fill:#FFEAA7;"/><rect height="4" style="fill:#AAB2BD;" width="6" x="14" y="32"/><rect height="4" style="fill:#AAB2BD;" width="6" x="24" y="32"/><rect height="4" style="fill:#AAB2BD;" width="6" x="34" y="32"/><rect height="4" style="fill:#AAB2BD;" width="6" x="44" y="32"/><rect height="4" style="fill:#838F9B;" width="2" x="7" y="47"/><rect height="4" style="fill:#838F9B;" width="2" x="13" y="47"/><polygon points="19,51.955 21,53.177 21,48.49 19,47.267  " style="fill:#838F9B;"/><polygon points="25,55.622 27,56.844 27,52.156 25,50.934  " style="fill:#838F9B;"/><polygon points="31,59.288 33,60.51 33,55.823 31,54.601  " style="fill:#838F9B;"/><rect height="4" style="fill:#838F9B;" width="2" x="37" y="58"/><rect height="4" style="fill:#838F9B;" width="2" x="55" y="58"/><rect height="4" style="fill:#838F9B;" width="2" x="49" y="58"/><rect height="4" style="fill:#838F9B;" width="2" x="43" y="58"/><rect height="4" style="fill:#838F9B;" width="2" x="55" y="40"/><rect height="4" style="fill:#838F9B;" width="2" x="49" y="40"/><rect height="4" style="fill:#838F9B;" width="2" x="43" y="40"/><rect height="4" style="fill:#838F9B;" width="2" x="37" y="40"/><polygon points="31,48.717 33,47.098 33,41.784 31,43.427  " style="fill:#838F9B;"/><polygon points="28,12 36,12 35.6,10 28.4,10  " style="fill:#FFC729;"/><rect height="2" style="fill:#FCD770;" width="48" x="8" y="28"/><rect height="2" style="fill:#969FAA;" width="6" x="14" y="34"/><rect height="2" style="fill:#969FAA;" width="6" x="34" y="34"/><rect height="2" style="fill:#969FAA;" width="6" x="24" y="34"/><rect height="2" style="fill:#969FAA;" width="6" x="44" y="34"/></g></svg>