<?xml version="1.0" ?><svg id="Layer_1_1_" style="enable-background:new 0 0 64 64;" version="1.1" viewBox="0 0 64 64" xml:space="preserve" xmlns="http://www.w3.org/2000/svg" xmlns:xlink="http://www.w3.org/1999/xlink"><g><polygon points="20,40 2,40 2,62 62,62 62,40 44,40  " style="fill:#CCD1D9;"/><rect height="2" style="fill:#AAB2BD;" width="60" x="2" y="44"/><polygon points="62,44 44,44 20,44 2,44 2,40 62,40  " style="fill:#4FC1E9;"/><polygon points="22,40 42,40 44,40 44,26 20,26 20,40  " style="fill:#E6E9ED;"/><path d="M35,30h-6c-3.72,0-7.008,1.861-9,4.695V40h2h20h2v-5.305C42.008,31.861,38.72,30,35,30z" style="fill:#CCD1D9;"/><polygon points="22,26 42,26 44,26 44,12 20,12 20,26  " style="fill:#CCD1D9;"/><rect height="2" style="fill:#AAB2BD;" width="24" x="20" y="24"/><polygon points="40,22.172 40,26 42,26 44,26 44,18.172  " style="fill:#AAB2BD;"/><polygon points="40,26 40,40 42,40 44,40 44,26  " style="fill:#CCD1D9;"/><rect height="16" style="fill:#AAB2BD;" width="18" x="42" y="24"/><path d="M42,32.521V40h3.949C45.677,36.999,44.2,34.341,42,32.521z" style="fill:#969FAA;"/><rect height="2" style="fill:#969FAA;" width="18" x="42" y="38"/><polygon points="24,26 20,26 20,40 22,40 24,40  " style="fill:#CCD1D9;"/><polygon points="20,26 22,26 24,26 24,22.172 20,18.172  " style="fill:#AAB2BD;"/><rect height="16" style="fill:#AAB2BD;" width="18" x="4" y="24"/><path d="M18.051,40H22v-7.479C19.8,34.341,18.323,36.999,18.051,40z" style="fill:#969FAA;"/><rect height="2" style="fill:#969FAA;" width="18" x="4" y="24"/><rect height="2" style="fill:#969FAA;" width="18" x="4" y="38"/><path d="M20,40h-1.949C18.021,40.33,18,40.662,18,41v21h28V41c0-0.338-0.021-0.67-0.051-1H44H20z" style="fill:#AAB2BD;"/><path d="M18,44h2h24h2v-3c0-0.338-0.021-0.67-0.051-1H44H20h-1.949C18.021,40.33,18,40.662,18,41V44z" style="fill:#3BAFDA;"/><path d="M20,62V41c0-4.971,4.029-9,9-9h6c4.971,0,9,4.029,9,9v21H20z" style="fill:#E6E9ED;"/><path d="M24,62V52c0-3.314,2.686-6,6-6h4c3.314,0,6,2.686,6,6v10H24z" style="fill:#4FC1E9;"/><path d="M30,36h4c3.314,0,6,2.686,6,6v0H24v0C24,38.686,26.686,36,30,36z" style="fill:#4FC1E9;"/><rect height="13" style="fill:#AAB2BD;" width="2" x="5" y="49"/><rect height="3" style="fill:#AAB2BD;" width="2" x="5" y="44"/><path d="M16,62V52c0-1.105-0.895-2-2-2h-2c-1.105,0-2,0.895-2,2v10H16z" style="fill:#CF9E76;"/><path d="M36,62v-9c0-1.657-1.343-3-3-3h-2c-1.657,0-3,1.343-3,3v9H36z" style="fill:#CF9E76;"/><rect height="13" style="fill:#AAB2BD;" width="2" x="57" y="49"/><rect height="3" style="fill:#AAB2BD;" width="2" x="57" y="44"/><path d="M48,62V52c0-1.105,0.895-2,2-2h2c1.105,0,2,0.895,2,2v10H48z" style="fill:#CF9E76;"/><polygon points="22,24 22,23 13,14 4,23 4,24  " style="fill:#4FC1E9;"/><circle cx="13" cy="11" r="3" style="fill:#FCD770;"/><polygon points="42,24 42,23 51,14 60,23 60,24  " style="fill:#4FC1E9;"/><polygon points="20,12 20,11 32,2 44,11 44,12  " style="fill:#4FC1E9;"/><circle cx="51" cy="11" r="3" style="fill:#FCD770;"/><path d="M27,26v-8c0-1.105,0.895-2,2-2h6c1.105,0,2,0.895,2,2v8H27z" style="fill:#DFB28B;"/><rect height="2" style="fill:#969FAA;" transform="matrix(-1 -4.486867e-11 4.486867e-11 -1 102 50)" width="18" x="42" y="24"/><rect height="2" style="fill:#969FAA;" width="2" x="5" y="44"/><rect height="2" style="fill:#969FAA;" width="2" x="57" y="44"/><rect height="2" style="fill:#CCD1D9;" width="24" x="20" y="12"/><rect height="2" style="fill:#CF9E76;" width="10" x="27" y="24"/><rect height="2" style="fill:#AAB2BD;" width="24" x="20" y="12"/></g></svg>