<?xml version="1.0" ?><svg id="Layer_1_1_" style="enable-background:new 0 0 64 64;" version="1.1" viewBox="0 0 64 64" xml:space="preserve" xmlns="http://www.w3.org/2000/svg" xmlns:xlink="http://www.w3.org/1999/xlink"><g><polygon points="19,32 14,32 14,26 50,26 50,32 45,32  " style="fill:#F5E0CD;"/><rect height="2" style="fill:#F0D0B4;" width="36" x="14" y="30"/><polygon points="46,38 52,38 52,32 45,32 19,32 12,32 12,38 18,38  " style="fill:#F5E0CD;"/><rect height="2" style="fill:#F0D0B4;" width="40" x="12" y="36"/><polygon points="48,44 54,44 54,38 46,38 18,38 10,38 10,44 15,44  " style="fill:#F5E0CD;"/><rect height="2" style="fill:#F0D0B4;" width="44" x="10" y="42"/><polygon points="53,50 56,50 56,44 49,44 15,44 8,44 8,50 11,50  " style="fill:#F5E0CD;"/><rect height="2" style="fill:#F0D0B4;" width="48" x="8" y="48"/><polygon points="54,56 58,56 58,50 53,50 11,50 6,50 6,56 11,56  " style="fill:#F5E0CD;"/><rect height="2" style="fill:#F0D0B4;" width="52" x="6" y="54"/><polygon points="54,56 60,56 60,62 4,62 4,56 11,56  " style="fill:#F5E0CD;"/><polygon points="39.7,58 43,58 43,26 39.15,26 24.85,26 21,26 21,58 24.3,58  " style="fill:#CCD1D9;"/><rect height="2" style="fill:#AAB2BD;" width="22" x="21" y="29"/><rect height="2" style="fill:#AAB2BD;" width="22" x="21" y="33"/><rect height="2" style="fill:#AAB2BD;" width="22" x="21" y="37"/><rect height="2" style="fill:#AAB2BD;" width="22" x="21" y="41"/><rect height="2" style="fill:#AAB2BD;" width="25" x="20" y="49"/><rect height="2" style="fill:#AAB2BD;" width="24" x="20" y="45"/><rect height="2" style="fill:#AAB2BD;" width="25" x="20" y="53"/><rect height="2" style="fill:#AAB2BD;" width="25" x="20" y="57"/><polygon points="39.914,26 43,53 46,44 44,26  " style="fill:#ECC19C;"/><polygon points="20,26 18,45 21.125,52.882 24.111,26  " style="fill:#ECC19C;"/><rect height="11" style="fill:#F5E0CD;" width="32" x="16" y="15"/><rect height="2" style="fill:#F0D0B4;" width="32" x="16" y="15"/><rect height="2" style="fill:#F0D0B4;" width="32" x="16" y="24"/><polygon points="40,15 50,15 47,9 39,9 25,9 17,9 14,15 24,15  " style="fill:#DFB28B;"/><path d="M42,12c0-1.059-0.23-2.071-0.627-3H39H25h-2.373C22.23,9.929,22,10.941,22,12v3h2h16h2V12z" style="fill:#CF9E76;"/><rect height="11" style="fill:#F0D0B4;" width="20" x="22" y="15"/><path d="M24,26V12c0-2.3,1.4-4.368,3.536-5.222l0,0c0.956-0.382,1.783-1.031,2.382-1.868L32,2l2.082,2.909   c0.599,0.838,1.426,1.486,2.382,1.868l0,0C38.6,7.632,40,9.7,40,12v14H24z" style="fill:#FCD770;"/><path d="M44.009,55h4c1.295-1.942,1.988-4.221,1.998-6.555c-0.01-2.73-1.555-5.224-3.998-6.445   c-2.443,1.222-3.988,3.715-3.998,6.445C42.021,50.779,42.715,53.058,44.009,55z" style="fill:#FFEAA7;"/><path d="M44.009,55L44.009,55c-1.304-1.956-2-4.255-2-6.606V47c-2.78,1.486-4.357,4.509-3.944,7.96   c0.406,3.391,2.808,6.116,6.145,6.843c5.202,1.133,9.799-2.798,9.799-7.804c0-3.057-1.48-5.653-4-7v1.394   c0,2.351-0.696,4.649-2,6.606l0,0H44.009z" style="fill:#FFEAA7;"/><path d="M42.894,52.882c0.3,0.738,0.669,1.449,1.115,2.118h4c0.446-0.669,0.815-1.381,1.115-2.118   C48.215,52.326,47.151,52,46.01,52C44.868,52,43.804,52.326,42.894,52.882z" style="fill:#FCD770;"/><path d="M49.125,52.882c-0.3,0.738-0.669,1.449-1.115,2.118h-4c-0.446-0.669-0.815-1.38-1.115-2.118   C41.168,53.937,40.01,55.833,40.01,58c0,0.539,0.078,1.06,0.212,1.557c1.048,1.099,2.408,1.902,3.988,2.247   c2.988,0.651,5.771-0.374,7.603-2.309c0.124-0.479,0.196-0.978,0.196-1.495C52.01,55.833,50.851,53.936,49.125,52.882z" style="fill:#FCD770;"/><path d="M50.009,47v1.394c0,2.351-0.696,4.649-2,6.606h-4c-1.304-1.956-2-4.255-2-6.606V47   c-0.765,0.409-1.427,0.942-1.993,1.56c0.032,2.697,0.834,5.305,2.33,7.549L42.939,57h6.142l0.593-0.892   c1.49-2.237,2.291-4.833,2.328-7.534C51.439,47.952,50.78,47.412,50.009,47z" style="fill:#FCD770;"/><circle cx="46.009" cy="58" r="4" style="fill:#FFEAA7;"/><path d="M36,26L36,26V12c0-0.668-0.4-1.26-1.021-1.508C33.874,10.05,32.865,9.409,32,8.604   c-0.865,0.805-1.875,1.446-2.98,1.889C28.4,10.74,28,11.332,28,12v14H36z" style="fill:#DFB28B;"/><rect height="4" style="fill:#FFEAA7;" width="4" x="24" y="17"/><rect height="4" style="fill:#FFEAA7;" width="4" x="36" y="17"/><path d="M16.009,55h4c1.295-1.942,1.988-4.221,1.998-6.555c-0.01-2.73-1.555-5.224-3.998-6.445   c-2.443,1.222-3.988,3.715-3.998,6.445C14.021,50.779,14.715,53.058,16.009,55z" style="fill:#FFEAA7;"/><path d="M16.009,55L16.009,55c-1.304-1.956-2-4.255-2-6.606V47c-2.78,1.486-4.357,4.509-3.944,7.96   c0.406,3.391,2.808,6.116,6.145,6.843c5.202,1.133,9.799-2.798,9.799-7.804c0-3.057-1.48-5.653-4-7v1.394   c0,2.351-0.696,4.649-2,6.606l0,0H16.009z" style="fill:#FFEAA7;"/><path d="M14.894,52.882c0.3,0.738,0.669,1.449,1.115,2.118h4c0.446-0.669,0.815-1.381,1.115-2.118   C20.215,52.326,19.151,52,18.01,52C16.868,52,15.804,52.326,14.894,52.882z" style="fill:#FCD770;"/><path d="M21.125,52.882c-0.3,0.738-0.669,1.449-1.115,2.118h-4c-0.446-0.669-0.815-1.38-1.115-2.118   C13.168,53.937,12.01,55.833,12.01,58c0,0.539,0.078,1.06,0.212,1.557c1.048,1.099,2.408,1.902,3.988,2.247   c2.988,0.651,5.771-0.374,7.603-2.309c0.124-0.479,0.196-0.978,0.196-1.495C24.01,55.833,22.851,53.936,21.125,52.882z" style="fill:#FCD770;"/><path d="M22.009,47v1.394c0,2.351-0.696,4.649-2,6.606h-4c-1.304-1.956-2-4.255-2-6.606V47   c-0.765,0.409-1.427,0.942-1.993,1.56c0.032,2.697,0.834,5.305,2.33,7.549L14.939,57h6.142l0.593-0.892   c1.49-2.237,2.291-4.833,2.328-7.534C23.439,47.952,22.78,47.412,22.009,47z" style="fill:#FCD770;"/><circle cx="18.009" cy="58" r="4" style="fill:#FFEAA7;"/></g></svg>