<?xml version="1.0" ?><svg id="Layer_1_1_" style="enable-background:new 0 0 64 64;" version="1.1" viewBox="0 0 64 64" xml:space="preserve" xmlns="http://www.w3.org/2000/svg" xmlns:xlink="http://www.w3.org/1999/xlink"><g><path d="M57,58h3c1.105,0,2,0.895,2,2v2H42v-2c0-1.105,0.895-2,2-2h11H57z" style="fill:#AAB2BD;"/><path d="M60,58v-2c0-1.105-0.895-2-2-2H46c-1.105,0-2,0.895-2,2v2H60z" style="fill:#E6E9ED;"/><rect height="4" style="fill:#E6E9ED;" width="36" x="14" y="2"/><rect height="8" style="fill:#E6E9ED;" width="40" x="12" y="6"/><rect height="2" style="fill:#CCD1D9;" width="40" x="12" y="12"/><rect height="2" style="fill:#CCD1D9;" width="36" x="14" y="4"/><polygon points="60,22 4,22 2,14 62,14  " style="fill:#E6E9ED;"/><rect height="32" style="fill:#E6E9ED;" width="12" x="46" y="22"/><rect height="2" style="fill:#CCD1D9;" width="12" x="46" y="52"/><rect height="8" style="fill:#969FAA;" width="4" x="50" y="46"/><rect height="8" style="fill:#969FAA;" width="4" x="50" y="28"/><rect height="4" style="fill:#FCD770;" width="12" x="46" y="36"/><path d="M17,58h3c1.105,0,2,0.895,2,2v2H2v-2c0-1.105,0.895-2,2-2h11H17z" style="fill:#AAB2BD;"/><path d="M20,58v-2c0-1.105-0.895-2-2-2H6c-1.105,0-2,0.895-2,2v2H20z" style="fill:#E6E9ED;"/><rect height="32" style="fill:#E6E9ED;" width="12" x="6" y="22"/><rect height="2" style="fill:#CCD1D9;" width="12" x="6" y="34"/><rect height="2" style="fill:#CCD1D9;" width="12" x="6" y="52"/><rect height="8" style="fill:#969FAA;" width="4" x="10" y="46"/><rect height="8" style="fill:#969FAA;" width="4" x="10" y="28"/><rect height="4" style="fill:#FCD770;" width="12" x="6" y="36"/><path d="M18,42c0-7.732,6.268-14,14-14h0c7.732,0,14,6.268,14,14V22H18V42z" style="fill:#CCD1D9;"/><rect height="4" style="fill:#969FAA;" width="8" x="16" y="10"/><rect height="4" style="fill:#969FAA;" width="8" x="28" y="10"/><rect height="4" style="fill:#969FAA;" width="8" x="40" y="10"/><rect height="4" style="fill:#CCD1D9;" width="2" x="19" y="2"/><rect height="4" style="fill:#CCD1D9;" width="2" x="25" y="2"/><rect height="4" style="fill:#CCD1D9;" width="2" x="31" y="2"/><rect height="4" style="fill:#CCD1D9;" width="2" x="37" y="2"/><rect height="4" style="fill:#CCD1D9;" width="2" x="43" y="2"/><rect height="2" style="fill:#838F9B;" width="8" x="16" y="12"/><rect height="2" style="fill:#838F9B;" width="8" x="28" y="12"/><rect height="2" style="fill:#838F9B;" width="8" x="40" y="12"/><rect height="2" style="fill:#CCD1D9;" width="12" x="6" y="22"/><rect height="2" style="fill:#CCD1D9;" width="12" x="46" y="22"/><rect height="2" style="fill:#CCD1D9;" width="16" x="4" y="56"/><rect height="2" style="fill:#CCD1D9;" width="16" x="44" y="56"/><rect height="2" style="fill:#838F9B;" width="4" x="10" y="52"/><rect height="2" style="fill:#838F9B;" width="4" x="50" y="52"/><rect height="2" style="fill:#AAB2BD;" width="28" x="18" y="22"/><path d="M20,34.816V22h-2v19h0.05C18.21,38.748,18.901,36.648,20,34.816z" style="fill:#AAB2BD;"/><path d="M44,22v12.816c1.099,1.832,1.79,3.932,1.95,6.184H46V22H44z" style="fill:#AAB2BD;"/><rect height="2" style="fill:#CCD1D9;" width="12" x="46" y="34"/><rect height="2" style="fill:#838F9B;" width="4" x="10" y="34"/><rect height="2" style="fill:#838F9B;" width="4" x="50" y="34"/><rect height="2" style="fill:#AAB2BD;" width="2" x="19" y="4"/><rect height="2" style="fill:#AAB2BD;" width="2" x="25" y="4"/><rect height="2" style="fill:#AAB2BD;" width="2" x="31" y="4"/><rect height="2" style="fill:#AAB2BD;" width="2" x="37" y="4"/><rect height="2" style="fill:#AAB2BD;" width="2" x="43" y="4"/></g></svg>