<?xml version="1.0" ?><svg id="Layer_1_1_" style="enable-background:new 0 0 64 64;" version="1.1" viewBox="0 0 64 64" xml:space="preserve" xmlns="http://www.w3.org/2000/svg" xmlns:xlink="http://www.w3.org/1999/xlink"><g><rect height="22" style="fill:#ECC19C;" width="8" x="6" y="28"/><rect height="22" style="fill:#ECC19C;" width="8" x="50" y="28"/><polygon points="56,44 50,44 50,50 58,50 58,44  " style="fill:#DFB28B;"/><polygon points="14,44 8,44 6,44 6,50 14,50  " style="fill:#DFB28B;"/><polygon points="42,46 46,46 46,50 50,50 50,46 54,46 54,50 58,50 58,46 62,46 62,62 2,62 2,46 6,46 6,50    10,50 10,46 14,46 14,50 18,50 18,46 22,46  " style="fill:#F0D0B4;"/><polygon points="20,62 44,62 44,46 42,46 22,46 20,46  " style="fill:#ECC19C;"/><rect height="20" style="fill:#F5E0CD;" width="20" x="22" y="42"/><path d="M38,62V50h-3v-1c0-1.657-1.343-3-3-3h0c-1.657,0-3,1.343-3,3v1h-3v12H38z" style="fill:#B27946;"/><rect height="4" style="fill:#B27946;" width="4" x="46" y="54"/><rect height="4" style="fill:#B27946;" width="4" x="54" y="54"/><rect height="12" style="fill:#E6E9ED;" width="16" x="24" y="20"/><path d="M40,29.081C37.874,27.172,35.075,26,32,26s-5.874,1.172-8,3.081V32h16V29.081z" style="fill:#CCD1D9;"/><rect height="5" style="fill:#DFB28B;" width="8" x="28" y="24"/><path d="M32,26c-1.405,0-2.748,0.255-4,0.703V29h8v-2.297C34.748,26.255,33.405,26,32,26z" style="fill:#CF9E76;"/><rect height="4" style="fill:#B27946;" transform="matrix(-1 -4.502011e-11 4.502011e-11 -1 32 112)" width="4" x="14" y="54"/><rect height="4" style="fill:#B27946;" transform="matrix(-1 -4.502011e-11 4.502011e-11 -1 16 112)" width="4" x="6" y="54"/><path d="M22,42v-4c0-5.523,4.477-10,10-10h0c5.523,0,10,4.477,10,10v4H22z" style="fill:#E6E9ED;"/><polygon points="22,20 42,20 44,16 44,8 20,8 20,16  " style="fill:#CCD1D9;"/><rect height="6" style="fill:#CCD1D9;" width="12" x="26" y="2"/><rect height="2" style="fill:#AAB2BD;" width="12" x="26" y="6"/><polygon points="22,20 42,20 44,16 20,16  " style="fill:#AAB2BD;"/><rect height="8" style="fill:#969FAA;" width="2" x="23" y="8"/><rect height="8" style="fill:#969FAA;" width="2" x="27" y="8"/><rect height="8" style="fill:#969FAA;" width="2" x="35" y="8"/><rect height="8" style="fill:#969FAA;" width="2" x="39" y="8"/><rect height="8" style="fill:#969FAA;" width="2" x="31" y="8"/><rect height="4" style="fill:#CCD1D9;" width="20" x="22" y="38"/><polygon points="16,28 4,28 2,22 18,22  " style="fill:#F0D0B4;"/><path d="M5,22v-5c0-2.761,2.239-5,5-5h0c2.761,0,5,2.239,5,5v5H5z" style="fill:#E6E9ED;"/><rect height="4" style="fill:#CF9E76;" width="2" x="9" y="31"/><rect height="4" style="fill:#CF9E76;" width="2" x="9" y="37"/><path d="M10,12c-2.761,0-5,2.239-5,5v1h10v-1C15,14.239,12.761,12,10,12z" style="fill:#CCD1D9;"/><polygon points="60,28 48,28 46,22 62,22  " style="fill:#F0D0B4;"/><path d="M49,22v-5c0-2.761,2.239-5,5-5h0c2.761,0,5,2.239,5,5v5H49z" style="fill:#E6E9ED;"/><path d="M54,12c-2.761,0-5,2.239-5,5v1h10v-1C59,14.239,56.761,12,54,12z" style="fill:#CCD1D9;"/><rect height="4" style="fill:#CF9E76;" width="2" x="53" y="31"/><rect height="4" style="fill:#CF9E76;" width="2" x="53" y="37"/><rect height="2" style="fill:#DFB28B;" width="8" x="6" y="28"/><rect height="2" style="fill:#DFB28B;" width="8" x="50" y="28"/><rect height="2" style="fill:#CCD1D9;" width="16" x="24" y="20"/></g></svg>