<?xml version="1.0" ?><svg id="Layer_1_1_" style="enable-background:new 0 0 64 64;" version="1.1" viewBox="0 0 64 64" xml:space="preserve" xmlns="http://www.w3.org/2000/svg" xmlns:xlink="http://www.w3.org/1999/xlink"><g><polygon points="5,62 5,6 9,6 9,10 13,10 13,6 17,6 17,10 21,10 21,18 43,18 47,18 47,14 51,14 51,18 55,18    55,14 59,14 59,62  " style="fill:#F5E0CD;"/><polygon points="45,18 43,18 21,18 21,10 19,10 19,62 45,62  " style="fill:#ECC19C;"/><rect height="18" style="fill:#F0D0B4;" width="16" x="43" y="26"/><rect height="16" style="fill:#F0D0B4;" width="16" x="5" y="30"/><polygon points="39,2 39,6 35,6 35,2 29,2 29,6 25,6 25,2 21,2 21,62 43,62 43,2  " style="fill:#F0D0B4;"/><rect height="2" style="fill:#ECC19C;" width="22" x="21" y="30"/><rect height="2" style="fill:#ECC19C;" width="22" x="21" y="36"/><polygon points="24,62 27,50 37,50 40,62  " style="fill:#DFB28B;"/><rect height="2" style="fill:#B27946;" width="62" x="1" y="61"/><polygon points="26,54 38,54 39,58 25,58  " style="fill:#CF9E76;"/><path d="M29,40h6c1.105,0,2,0.895,2,2v8H27v-8C27,40.895,27.895,40,29,40z" style="fill:#CF9E76;"/><rect height="4" style="fill:#DFB28B;" width="22" x="21" y="32"/><rect height="20" style="fill:#CF9E76;" width="14" x="25" y="12"/><rect height="2" style="fill:#B27946;" width="14" x="25" y="30"/><polygon points="35,32 35,29 35,27 35,18 29,18 29,27 29,29 29,32  " style="fill:#DFB28B;"/><rect height="8" style="fill:#CF9E76;" width="4" x="11" y="50"/><rect height="8" style="fill:#CF9E76;" width="4" x="11" y="34"/><rect height="8" style="fill:#CF9E76;" width="4" x="11" y="18"/><polygon points="21,10 17,10 17,6 13,6 13,10 9,10 9,6 5,6 5,14 21,14  " style="fill:#F0D0B4;"/><rect height="10" style="fill:#CF9E76;" width="4" x="49" y="48"/><rect height="10" style="fill:#CF9E76;" width="4" x="49" y="30"/><rect height="18" style="fill:#DFB28B;" width="2" x="43" y="26"/><rect height="16" style="fill:#DFB28B;" width="2" x="19" y="30"/><rect height="2" style="fill:#CF9E76;" width="6" x="29" y="30"/><rect height="4" style="fill:#DFB28B;" width="2" x="19" y="10"/></g></svg>