<?xml version="1.0" ?><svg id="Layer_1_1_" style="enable-background:new 0 0 64 64;" version="1.1" viewBox="0 0 64 64" xml:space="preserve" xmlns="http://www.w3.org/2000/svg" xmlns:xlink="http://www.w3.org/1999/xlink"><g><polygon points="49,58 49,48 49,36.5 49,18 15,18 15,36.562 15,47.812 15,58  " style="fill:#FFEAA7;"/><rect height="2" style="fill:#FFC729;" width="34" x="15" y="18"/><rect height="2" style="fill:#FCD770;" width="34" x="15" y="56"/><polygon points="20.75,18 11,18 11,17 15.256,13.96 21.795,9.29 32,2 42.536,9.526 48.8,14 53,17 53,18    43.562,18  " style="fill:#CF9E76;"/><polygon points="23.319,8.201 21.795,9.29 15.256,13.96 13.641,15.114 17.376,18 20.75,18 30.891,18  " style="fill:#B27946;"/><polygon points="48.8,14 42.536,9.526 40.681,8.201 33.109,18 43.562,18 46.624,18 50.359,15.114  " style="fill:#B27946;"/><polygon points="40,13 47,18 18,18 24,13 24.344,12.861 32,7.028 39.568,12.794  " style="fill:#DFB28B;"/><polygon points="40,13 39.568,12.794 38.034,11.626 33.109,18 43.562,18 46.624,18 46.804,17.86  " style="fill:#CF9E76;"/><path d="M33.109,18l-1.301,1.684l-4.727,4.817L15,33.836v2.726v11.25v2.048   c1.567-0.316,3.003-1.182,3.992-2.462l13.2-17.082l4.727-4.817L46.624,18H33.109z" style="fill:#FCD770;"/><path d="M30.682,29L17.41,46.176C16.521,47.326,15.149,48,13.695,48h0C11.102,48,9,45.898,9,43.305v0   c0-1.454,0.674-2.826,1.824-3.715L28.412,26l4.906-5L46.59,3.824C47.479,2.674,48.851,2,50.305,2h0C52.898,2,55,4.102,55,6.695v0   c0,1.454-0.674,2.826-1.824,3.715L35.588,24L30.682,29z" style="fill:#E6E9ED;"/><polygon points="24.344,12.861 24,13 18,18 20.75,18 30.891,18 25.966,11.626  " style="fill:#CF9E76;"/><path d="M37.316,24.808l-4.817-4.727L30.891,18H17.376l9.307,7.192l4.817,4.727l13.507,17.479   c0.989,1.279,2.425,2.145,3.992,2.462V48V36.5v-2.664L37.316,24.808z" style="fill:#FCD770;"/><path d="M36,26.318L53.176,39.59C54.326,40.479,55,41.851,55,43.305v0C55,45.898,52.898,48,50.305,48h0   c-1.454,0-2.826-0.674-3.715-1.824L33,28.588l-5-4.906L10.824,10.41C9.674,9.521,9,8.149,9,6.695v0C9,4.102,11.102,2,13.695,2h0   c1.454,0,2.826,0.674,3.715,1.824L31,21.412L36,26.318z" style="fill:#E6E9ED;"/><path d="M37.47,22.546c-0.602-1.337-1.679-2.414-3.016-3.016L33.318,21l-4.906,5l-1.881,1.454   c0.602,1.337,1.679,2.414,3.016,3.016L30.682,29l4.906-5L37.47,22.546z" style="fill:#CCD1D9;"/><path d="M36,26.318l-5-4.906l-1.454-1.881c-1.337,0.602-2.414,1.679-3.016,3.016L28,23.682l5,4.906   l1.454,1.881c1.337-0.602,2.414-1.679,3.016-3.016L36,26.318z" style="fill:#CCD1D9;"/><circle cx="32" cy="25" r="4" style="fill:#969FAA;"/><path d="M11,62L11,62c0-2.209,1.791-4,4-4h29h2h3c2.209,0,4,1.791,4,4v0H11z" style="fill:#838F9B;"/><rect height="12" style="fill:#4FC1E9;" width="12" x="26" y="40"/><polygon points="38,45 33,45 33,40 31,40 31,45 26,45 26,47 31,47 31,52 33,52 33,47 38,47  " style="fill:#FFEAA7;"/><rect height="2" style="fill:#B27946;" width="2" x="61" y="61"/><rect height="2" style="fill:#B27946;" width="2" x="1" y="61"/><rect height="2" style="fill:#B27946;" width="54" x="5" y="61"/></g></svg>